<svg width="23" height="22" viewBox="0 0 23 22" fill="none" xmlns="http://www.w3.org/2000/svg">
<path d="M3.16504 10.1116C2.75083 10.1128 2.34541 10.2312 1.9957 10.4531C1.64598 10.6751 1.36624 10.9915 1.18886 11.3658C1.01148 11.7401 0.943703 12.157 0.993363 12.5682C1.04302 12.9795 1.2081 13.3682 1.46948 13.6895L7.04164 20.5154C7.24031 20.7621 7.49498 20.9578 7.78449 21.0864C8.074 21.2149 8.38999 21.2724 8.70622 21.2543C9.38256 21.218 9.99318 20.8562 10.3825 20.2613L21.9573 1.62013C21.9592 1.61704 21.9611 1.61394 21.9632 1.6109C22.0718 1.44414 22.0366 1.11368 21.8124 0.906083C21.7508 0.849074 21.6782 0.805275 21.5991 0.777383C21.5199 0.749492 21.4359 0.738098 21.3522 0.743905C21.2685 0.749712 21.1868 0.772596 21.1123 0.811148C21.0377 0.849699 20.9719 0.903102 20.9188 0.968068C20.9146 0.973176 20.9103 0.978206 20.9059 0.98316L9.23261 14.1723C9.18819 14.2225 9.13424 14.2633 9.0739 14.2925C9.01355 14.3216 8.94801 14.3385 8.88109 14.3421C8.81417 14.3458 8.74719 14.3361 8.68405 14.3136C8.62091 14.2911 8.56287 14.2563 8.5133 14.2112L4.63914 10.6857C4.23678 10.3168 3.71088 10.112 3.16504 10.1116Z" fill="white"/>
</svg>
