<svg width="220" height="220" viewBox="0 0 220 220" fill="none" xmlns="http://www.w3.org/2000/svg">
<path d="M194.269 117.142C194.269 119.782 193.709 122.502 193.229 125.142C190.124 141.918 181.998 157.356 169.927 169.413C157.856 181.47 142.409 189.577 125.629 192.662C122.989 193.142 120.349 193.462 117.629 193.702C115.257 193.822 112.881 193.822 110.509 193.702C98.8651 193.762 87.3358 191.402 76.6515 186.772C65.9673 182.143 56.3611 175.345 48.4416 166.808C40.5221 158.272 34.462 148.184 30.6452 137.183C26.8285 126.183 25.3383 114.509 26.2691 102.902C26.2691 100.262 26.8291 97.5421 27.3091 94.9021C30.4141 78.1261 38.5397 62.6882 50.6108 50.6314C62.6819 38.5746 78.1294 30.4673 94.9091 27.3821C97.5491 26.9021 100.189 26.5821 102.909 26.3421C115.135 25.2358 127.456 26.8202 139.004 30.9841C150.553 35.1479 161.049 41.7901 169.757 50.444C178.464 59.0979 185.171 69.5535 189.405 81.0762C193.64 92.599 195.3 104.909 194.269 117.142Z" fill="#EAFFEA"/>
<path d="M175.296 44.704C165.774 35.2299 154.293 27.9566 141.659 23.3957C129.025 18.8347 115.546 17.0967 102.168 18.304C99.264 18.304 96.36 18.92 93.368 19.448C74.9103 22.8416 57.9181 31.7597 44.6399 45.0222C31.3617 58.2847 22.4235 75.2663 19.008 93.72C18.48 96.624 18.128 99.616 17.864 102.52C16.8439 115.243 18.4683 128.04 22.635 140.104C26.8017 152.169 33.4205 163.241 42.075 172.622C50.7294 182.004 61.232 189.493 72.922 194.618C84.6119 199.743 97.2361 202.392 110 202.4C112.609 202.532 115.223 202.532 117.832 202.4C120.736 202.4 123.64 201.784 126.632 201.256C132.867 200.116 138.97 198.347 144.848 195.976C159.228 190.087 171.903 180.687 181.711 168.634C191.519 156.581 198.148 142.261 200.992 126.984C201.52 124.08 201.872 121.088 202.136 118.184C203.339 104.716 201.558 91.1485 196.919 78.4477C192.28 65.7468 184.897 54.2254 175.296 44.704ZM50.864 169.136C42.2078 160.501 35.5355 150.085 31.3108 138.612C27.0861 127.138 25.4104 114.882 26.4 102.696C49.7139 105.012 71.4939 115.373 88 132C104.579 148.51 114.853 170.305 117.04 193.6C104.897 194.55 92.6915 192.855 81.2666 188.632C69.8418 184.408 59.4691 177.757 50.864 169.136ZM169.136 169.136C157.338 180.872 142.338 188.862 126.016 192.104C123.564 166.923 112.389 143.391 94.424 125.576C76.5706 107.666 53.059 96.501 27.896 93.984C31.1381 77.6622 39.1283 62.6615 50.864 50.864C62.6265 39.0808 77.6425 31.0825 93.984 27.896C96.4364 53.0769 107.611 76.6093 125.576 94.424C143.438 112.322 166.945 123.485 192.104 126.016C188.862 142.338 180.872 157.338 169.136 169.136ZM132 88C115.421 71.4896 105.147 49.6953 102.96 26.4H110.264C121.875 26.3778 133.363 28.777 143.995 33.4445C154.626 38.112 164.168 44.9451 172.01 53.5077C179.852 62.0702 185.822 72.1739 189.54 83.1737C193.257 94.1735 194.64 105.828 193.6 117.392C170.289 115.002 148.523 104.617 132 88Z" fill="#F85A4E"/>
</svg>
