<svg width="240" height="240" viewBox="0 0 240 240" fill="none" xmlns="http://www.w3.org/2000/svg">
<g clip-path="url(#clip0_343_16240)">
<path d="M47.4493 160.148L38.5394 212.097C37.2522 219.606 40.2808 227.053 46.4459 231.531C52.6092 236.01 60.6274 236.589 67.373 233.044L114.025 208.519C117.765 206.55 122.233 206.55 125.974 208.519C125.974 208.519 172.624 233.044 172.626 233.044C179.163 236.481 187.419 235.988 193.553 231.531C199.716 227.053 202.747 219.606 201.457 212.097L197.394 188.399C197.065 186.486 195.25 185.2 193.335 185.528C191.42 185.857 190.136 187.674 190.464 189.587L194.527 213.285C195.373 218.21 193.463 222.905 189.42 225.842C185.377 228.781 180.322 229.145 175.898 226.82L129.246 202.295C123.456 199.25 116.542 199.25 110.753 202.295L64.1009 226.82C59.6771 229.145 54.6216 228.781 50.5786 225.842C46.5356 222.905 44.6258 218.21 45.47 213.285L54.3799 161.338C55.4858 154.891 53.349 148.315 48.6651 143.749L10.9235 106.959C7.34558 103.471 6.12976 98.551 7.67333 93.7976C9.21874 89.0442 13.0933 85.7776 18.0389 85.058L70.1984 77.4792C76.6711 76.5381 82.265 72.475 85.1599 66.6083L95.9759 44.6942C96.8347 42.9529 96.1206 40.8453 94.3793 39.9847C92.6361 39.126 90.5304 39.8401 89.6698 41.5814L78.8537 63.4973C76.9842 67.2857 73.3697 69.9133 69.1858 70.5212L17.0282 78.1C9.48791 79.1949 3.34106 84.3768 0.986324 91.6241C-1.36841 98.8696 0.559689 106.675 6.0144 111.993L43.7579 148.782C46.7847 151.734 48.1653 155.982 47.4493 160.148Z" fill="#478DF5"/>
<path d="M222.972 78.1L170.812 70.5212C166.63 69.9133 163.016 67.2876 161.144 63.4973L137.82 16.2323C134.447 9.40063 127.619 5.15625 120 5.15625C112.381 5.15625 105.553 9.40063 102.181 16.2323L96.2425 28.266C95.3838 30.0055 96.0979 32.1149 97.8392 32.9736C99.5805 33.8324 101.688 33.1183 102.549 31.3769L108.487 19.3451C110.699 14.8627 115.002 12.1875 120 12.1875C124.999 12.1875 129.302 14.8627 131.514 19.3451L154.84 66.6083C157.737 72.475 163.329 76.5381 169.801 77.4792L221.961 85.058C226.907 85.7776 230.781 89.0442 232.326 93.7976C233.87 98.551 232.656 103.471 229.076 106.959L191.335 143.749C186.651 148.315 184.514 154.891 185.62 161.338C185.62 161.338 187.532 172.489 187.535 172.511C187.859 174.391 189.72 175.704 191.595 175.382C193.51 175.054 194.794 173.236 194.466 171.323L192.55 160.15C191.835 155.984 193.215 151.734 196.242 148.784L233.985 111.995C239.44 106.677 241.368 98.8714 239.014 91.6241C236.659 84.3768 230.512 79.1949 222.972 78.1Z" fill="#478DF5"/>
<path d="M231.529 109.47C241.237 100.007 235.88 83.5199 222.465 81.5716L170.308 73.9929C164.98 73.2183 160.374 69.8712 157.992 65.0445L134.666 17.7813C128.666 5.62497 111.331 5.62497 105.333 17.7813L82.0071 65.0445C79.6249 69.8712 75.0198 73.2183 69.6914 73.9929L17.5339 81.5716C4.11773 83.5199 -1.2381 100.007 8.46831 109.47L46.2118 146.259C50.0662 150.016 51.824 155.429 50.9158 160.735L42.0059 212.682C39.7134 226.044 53.7375 236.233 65.7364 229.924L112.388 205.398C117.152 202.894 122.845 202.894 127.61 205.398L174.261 229.924C186.26 236.232 200.284 226.044 197.993 212.682L189.084 160.735C188.173 155.431 189.933 150.016 193.787 146.259L231.529 109.47Z" fill="#478DF5"/>
<path d="M74.6631 109.297V116.867C74.6631 118.81 76.236 120.383 78.1787 120.383C80.1196 120.383 81.6943 118.81 81.6943 116.867V109.297C81.6943 107.357 80.1196 105.782 78.1787 105.782C76.236 105.782 74.6631 107.357 74.6631 109.297Z" fill="#151515"/>
<path d="M165.337 116.867V109.297C165.337 107.357 163.762 105.782 161.821 105.782C159.88 105.782 158.306 107.357 158.306 109.297V116.867C158.306 118.81 159.88 120.383 161.821 120.383C163.762 120.383 165.337 118.81 165.337 116.867Z" fill="#151515"/>
<path d="M120 124.424C125.037 124.424 129.765 122.322 132.969 118.654C134.247 117.193 134.097 114.972 132.636 113.694C131.175 112.416 128.954 112.564 127.676 114.027C125.806 116.166 123.008 117.393 120 117.393C116.992 117.393 114.194 116.166 112.324 114.027C111.048 112.566 108.827 112.416 107.364 113.694C105.903 114.972 105.753 117.193 107.031 118.654C110.235 122.322 114.963 124.424 120 124.424Z" fill="#151515"/>
</g>
<defs>
<clipPath id="clip0_343_16240">
<rect width="240" height="240" fill="white"/>
</clipPath>
</defs>
</svg>
