<svg width="240" height="240" viewBox="0 0 240 240" fill="none" xmlns="http://www.w3.org/2000/svg">
<g clip-path="url(#clip0_1118_2735)">
<path d="M76.5318 103.164C78.0279 101.668 80.4524 101.668 81.9481 103.164C82.6957 103.912 83.0694 104.892 83.0694 105.872C83.0694 106.852 82.6957 107.832 81.9481 108.58C75.6509 114.876 75.6509 125.123 81.9481 131.421C83.4432 132.916 83.4437 135.341 81.9476 136.837C80.4519 138.332 78.0269 138.332 76.5318 136.836C67.2484 127.553 67.2484 112.446 76.5318 103.164Z" fill="white"/>
<path d="M87.3638 92.3314L103.163 76.5318C104.66 75.0361 107.084 75.0361 108.58 76.5318C109.327 77.2799 109.701 78.2603 109.701 79.2402C109.701 80.2201 109.327 81.2005 108.58 81.9486L92.7801 97.7482C91.284 99.2439 88.8594 99.2439 87.3638 97.7482C85.8686 96.2516 85.8686 93.8271 87.3638 92.3314Z" fill="white"/>
<path d="M72.5171 238.878C68.699 235.06 65.9896 234.166 62.8527 233.132C59.3018 231.961 55.2769 230.633 50.1706 225.527C45.0647 220.421 43.737 216.396 42.5656 212.845C41.5316 209.708 40.638 206.999 36.8189 203.18C33.0004 199.361 30.2915 198.467 27.1541 197.433C23.6031 196.262 19.5783 194.934 14.4719 189.828C9.36606 184.722 8.0384 180.697 6.86751 177.146C5.83296 174.009 4.93934 171.3 1.1208 167.482C0.273139 166.634 -0.130264 165.438 0.035693 164.249C0.199608 163.06 0.911947 162.018 1.95875 161.431C3.34922 160.654 32.9575 144.332 64.258 146.145C57.7831 138.953 54.2383 129.749 54.2383 119.999C54.2383 109.547 58.3086 99.7209 65.6985 92.3299L92.3303 65.6982C107.09 50.9387 130.802 50.4597 146.145 64.2577C144.335 32.9561 160.655 3.34987 161.432 1.9594C162.018 0.912594 163.061 0.200766 164.249 0.0363411C165.438 -0.128084 166.635 0.273277 167.483 1.12145C171.301 4.93999 174.01 5.83361 177.147 6.86816C180.698 8.03905 184.723 9.3667 189.829 14.4726C194.935 19.5789 196.263 23.6038 197.434 27.1548C198.468 30.2921 199.362 33.001 203.181 36.8196C207 40.6386 209.708 41.5323 212.846 42.5663C216.397 43.7377 220.422 45.0654 225.528 50.1712C230.634 55.2776 231.962 59.3024 233.132 62.8534C234.167 65.9902 235.061 68.6997 238.879 72.5177C239.602 73.2413 240 74.2171 240 75.2261C240 75.4003 239.989 75.5764 239.964 75.7511C239.8 76.9393 239.088 77.9821 238.041 78.5683C236.651 79.3465 207.042 95.6675 175.742 93.8547C182.217 101.047 185.762 110.251 185.762 120.001C185.762 130.453 181.691 140.279 174.301 147.67L147.67 174.302C132.909 189.062 109.193 189.54 93.85 175.738C93.9454 177.384 93.997 179.025 93.997 180.657C93.997 210.076 79.3055 236.724 78.5686 238.041C77.9829 239.088 76.9402 239.8 75.7514 239.964C74.5622 240.128 73.3652 239.726 72.5171 238.878ZM142.252 168.884L168.884 142.252C174.828 136.309 178.102 128.406 178.102 120C178.102 111.594 174.828 103.692 168.884 97.7483L142.252 71.1165C129.983 58.8464 110.018 58.8464 97.7482 71.1165L71.1164 97.7483C65.1721 103.692 61.8989 111.594 61.8989 120C61.8989 128.406 65.1721 136.309 71.1164 142.252L97.7482 168.884C110.018 181.154 129.982 181.154 142.252 168.884ZM225.857 65.2514C224.823 62.1145 223.929 59.4051 220.111 55.587C216.292 51.768 213.583 50.8744 210.446 49.8403C206.895 48.6689 202.87 47.3413 197.764 42.2354C192.658 37.129 191.33 33.1042 190.159 29.5532C189.125 26.4159 188.231 23.7069 184.412 19.8884C180.594 16.0698 177.885 15.1762 174.748 14.1417C172.159 13.2879 169.319 12.3509 165.991 9.92841C161.185 20.084 150.251 46.8556 154.756 72.0137C156.161 68.8365 157.923 65.3795 160.046 61.6585C161.095 59.8212 163.434 59.1819 165.271 60.2308C166.509 60.9375 167.202 62.2299 167.202 63.5606C167.202 64.204 167.041 64.8566 166.698 65.4556C163.908 70.3455 161.802 74.691 160.398 78.4289L161.573 79.6038C174.285 74.8299 191.021 62.9897 200.175 56.1053C201.866 54.8344 204.266 55.1739 205.538 56.8641C206.056 57.554 206.307 58.3618 206.307 59.163C206.307 60.3257 205.78 61.4742 204.779 62.2268C194.331 70.0845 180.168 79.8663 167.998 85.2453C193.154 89.7461 219.92 78.8123 230.071 74.0078C227.648 70.6805 226.711 67.8403 225.857 65.2514ZM85.2462 167.999C79.8672 180.168 70.0875 194.329 62.2308 204.775C60.9593 206.466 58.5588 206.806 56.8681 205.534C55.1774 204.263 54.8373 201.862 56.1093 200.171C62.9927 191.019 74.8318 174.286 79.6052 161.574L78.4272 160.396C65.7154 165.17 48.9798 177.01 39.8256 183.895C38.1348 185.166 35.7343 184.826 34.4629 183.136C33.1919 181.446 33.5314 179.044 35.2217 177.773C45.6703 169.915 59.8328 160.133 72.0034 154.754C46.8468 150.253 20.0802 161.187 9.92878 165.992C12.3512 169.32 13.2883 172.16 14.142 174.748C15.1766 177.885 16.0702 180.595 19.8888 184.413C23.7073 188.232 26.4162 189.125 29.5536 190.159C33.1046 191.331 37.1294 192.658 42.2358 197.764C47.3416 202.871 48.6693 206.895 49.8407 210.446C50.8747 213.584 51.7683 216.293 55.5874 220.111C59.4054 223.93 62.1149 224.823 65.2517 225.858C67.8401 226.712 70.6808 227.649 74.0081 230.071C78.8137 219.917 89.7455 193.152 85.2462 167.999Z" fill="#F58839"/>
<path d="M168.335 48.4289C171.216 44.161 174.39 39.7179 177.77 35.2254C179.042 33.5346 181.443 33.1951 183.133 34.4665C184.134 35.2197 184.661 36.3676 184.661 37.5304C184.661 38.3316 184.41 39.1394 183.892 39.8293C180.59 44.2192 177.492 48.5545 174.683 52.7147C173.5 54.4682 171.119 54.9298 169.366 53.7462C167.613 52.562 167.15 50.1819 168.335 48.4289Z" fill="#F58839"/>
<g clip-path="url(#clip1_1118_2735)">
<path d="M167.998 85.2458C180.168 79.8667 194.33 70.085 204.779 62.2273C205.78 61.4746 206.307 60.3262 206.307 59.1635C206.307 58.3623 206.056 57.5544 205.538 56.8646C204.266 55.1738 201.866 54.8343 200.175 56.1058C191.021 62.9902 174.285 74.8308 161.573 79.6042L160.398 78.4293C161.802 74.6914 163.908 70.3459 166.698 65.456C167.041 64.8571 167.202 64.2045 167.202 63.5611C167.202 62.2308 166.509 60.9379 165.271 60.2312C163.433 59.1823 161.094 59.8217 160.046 61.6589C157.923 65.3799 156.161 68.837 154.756 72.0141C150.251 46.8561 161.185 20.0844 165.991 9.92883C169.319 12.3513 172.159 13.2883 174.748 14.1421C177.884 15.1767 180.594 16.0703 184.412 19.8888C188.231 23.7074 189.125 26.4163 190.159 29.5536C191.33 33.1046 192.658 37.1295 197.764 42.2358C202.87 47.3417 206.895 48.6693 210.446 49.8408C213.583 50.8748 216.292 51.7684 220.111 55.5875C223.929 59.4055 224.823 62.1149 225.857 65.2518C226.711 67.8402 227.648 70.6809 230.071 74.0082C219.92 78.8128 193.154 89.7465 167.998 85.2458ZM174.683 52.7146C177.492 48.5545 180.59 44.2186 183.892 39.8292C184.41 39.1393 184.661 38.3315 184.661 37.5303C184.661 36.3676 184.134 35.2197 183.133 34.4665C181.443 33.1955 179.042 33.5351 177.77 35.2253C174.391 39.7184 171.216 44.1609 168.335 48.4288C167.15 50.1818 167.612 52.5619 169.366 53.7456C171.119 54.9298 173.499 54.4676 174.683 52.7146Z" fill="#EA6D13"/>
<path d="M65.2518 225.857C62.1149 224.823 59.4055 223.929 55.5875 220.111C51.7684 216.292 50.8748 213.583 49.8407 210.446C48.6693 206.895 47.3417 202.87 42.2358 197.764C37.1295 192.658 33.1046 191.33 29.5536 190.159C26.4163 189.125 23.7074 188.231 19.8888 184.412C16.0703 180.594 15.1767 177.885 14.1421 174.748C13.2883 172.159 12.3513 169.319 9.92883 165.991C20.0803 161.187 46.8469 150.252 72.0034 154.754C59.8329 160.133 45.6704 169.915 35.2217 177.773C33.531 179.044 33.1914 181.445 34.4629 183.135C35.7344 184.826 38.1349 185.166 39.8256 183.894C48.9798 177.01 65.7154 165.169 78.4272 160.395L79.6053 161.573C74.8318 174.285 62.9932 191.018 56.1093 200.171C54.8378 201.862 55.1779 204.263 56.8681 205.534C58.5583 206.805 60.9594 206.465 62.2309 204.775C70.0875 194.328 79.8672 180.168 85.2463 167.998C89.746 193.152 78.8138 219.916 74.0082 230.07C70.6809 227.648 67.8402 226.711 65.2518 225.857Z" fill="#EA6D13"/>
<path d="M86.7439 157.88C86.7347 157.871 71.1158 142.252 71.1158 142.252C65.1715 136.308 61.8983 128.406 61.8983 120C61.8983 111.594 65.1715 103.691 71.1158 97.7478L97.7476 71.116C110.017 58.8459 129.982 58.8459 142.252 71.116L168.883 97.7478C174.828 103.692 178.101 111.594 178.101 120C178.101 128.406 174.828 136.309 168.883 142.252L142.252 168.884C129.982 181.154 110.017 181.154 97.7476 168.884L86.7439 157.88ZM92.7801 97.7478L108.58 81.9482C109.327 81.2001 109.701 80.2197 109.701 79.2398C109.701 78.2598 109.327 77.2794 108.58 76.5313C107.084 75.0357 104.659 75.0357 103.163 76.5313L87.3638 92.331C85.8686 93.8271 85.8686 96.2516 87.3638 97.7473C88.8594 99.2435 91.284 99.2435 92.7801 97.7478ZM81.9475 136.837C83.4436 135.34 83.4431 132.915 81.948 131.421C75.6508 125.122 75.6508 114.876 81.948 108.58C82.6955 107.832 83.0693 106.852 83.0693 105.872C83.0693 104.892 82.6955 103.912 81.948 103.164C80.4518 101.668 78.0273 101.668 76.5316 103.164C67.2483 112.447 67.2483 127.553 76.5316 136.836C78.0268 138.332 80.4518 138.332 81.9475 136.837Z" fill="#EA6D13"/>
<path d="M76.5318 103.164C78.0279 101.668 80.4524 101.668 81.9481 103.164C82.6957 103.912 83.0694 104.892 83.0694 105.872C83.0694 106.852 82.6957 107.832 81.9481 108.58C75.6509 114.876 75.6509 125.123 81.9481 131.421C83.4432 132.916 83.4437 135.341 81.9476 136.837C80.4519 138.332 78.0269 138.332 76.5318 136.836C67.2484 127.553 67.2484 112.446 76.5318 103.164Z" fill="white"/>
<path d="M87.3638 92.3314L103.163 76.5318C104.66 75.0361 107.084 75.0361 108.58 76.5318C109.327 77.2799 109.701 78.2603 109.701 79.2402C109.701 80.2201 109.327 81.2005 108.58 81.9486L92.7801 97.7482C91.284 99.2439 88.8594 99.2439 87.3638 97.7482C85.8686 96.2516 85.8686 93.8271 87.3638 92.3314Z" fill="white"/>
</g>
</g>
<defs>
<clipPath id="clip0_1118_2735">
<rect width="240" height="240" fill="white" transform="matrix(-4.37114e-08 1 1 4.37114e-08 0 0)"/>
</clipPath>
<clipPath id="clip1_1118_2735">
<rect width="240" height="240" fill="white" transform="matrix(-4.37114e-08 1 1 4.37114e-08 0 0)"/>
</clipPath>
</defs>
</svg>
