<svg width="240" height="240" viewBox="0 0 240 240" fill="none" xmlns="http://www.w3.org/2000/svg">
<path d="M76.5327 103.164C78.0289 101.668 80.4534 101.668 81.9491 103.164C82.6966 103.912 83.0704 104.892 83.0704 105.872C83.0704 106.852 82.6966 107.832 81.9491 108.58C75.6519 114.876 75.6519 125.123 81.9491 131.421C83.4442 132.916 83.4447 135.341 81.9485 136.837C80.4529 138.332 78.0279 138.332 76.5327 136.836C67.2493 127.553 67.2493 112.446 76.5327 103.164Z" fill="white"/>
<path d="M87.3648 92.3314L103.164 76.5318C104.661 75.0361 107.085 75.0361 108.581 76.5318C109.328 77.2799 109.702 78.2603 109.702 79.2402C109.702 80.2201 109.328 81.2005 108.581 81.9486L92.7811 97.7482C91.2849 99.2439 88.8604 99.2439 87.3648 97.7482C85.8696 96.2516 85.8696 93.8271 87.3648 92.3314Z" fill="white"/>
<path d="M72.518 238.878C68.7 235.06 65.9906 234.166 62.8537 233.132C59.3028 231.961 55.2779 230.633 50.1715 225.527C45.0657 220.421 43.738 216.396 42.5666 212.845C41.5326 209.708 40.639 206.999 36.8199 203.18C33.0014 199.361 30.2924 198.467 27.1551 197.433C23.6041 196.262 19.5793 194.934 14.4729 189.828C9.36703 184.722 8.03938 180.697 6.86848 177.146C5.83393 174.009 4.94032 171.3 1.12177 167.482C0.274116 166.634 -0.129288 165.438 0.0366696 164.249C0.200584 163.06 0.912923 162.018 1.95973 161.431C3.35019 160.654 32.9585 144.332 64.259 146.145C57.7841 138.953 54.2393 129.749 54.2393 119.999C54.2393 109.547 58.3096 99.7209 65.6995 92.3299L92.3313 65.6982C107.091 50.9387 130.803 50.4597 146.146 64.2577C144.336 32.9561 160.656 3.34987 161.433 1.9594C162.019 0.912594 163.062 0.200766 164.25 0.0363411C165.439 -0.128084 166.636 0.273277 167.484 1.12145C171.302 4.93999 174.011 5.83361 177.148 6.86816C180.699 8.03905 184.724 9.3667 189.83 14.4726C194.936 19.5789 196.264 23.6038 197.435 27.1548C198.469 30.2921 199.363 33.001 203.182 36.8196C207.001 40.6386 209.709 41.5323 212.847 42.5663C216.398 43.7377 220.423 45.0654 225.529 50.1712C230.635 55.2776 231.962 59.3024 233.133 62.8534C234.168 65.9902 235.062 68.6997 238.88 72.5177C239.603 73.2413 240.001 74.2171 240.001 75.2261C240.001 75.4003 239.99 75.5764 239.965 75.7511C239.801 76.9393 239.089 77.9821 238.042 78.5683C236.652 79.3465 207.043 95.6675 175.743 93.8547C182.218 101.047 185.763 110.251 185.763 120.001C185.763 130.453 181.692 140.279 174.302 147.67L147.671 174.302C132.91 189.062 109.194 189.54 93.8509 175.738C93.9464 177.384 93.998 179.025 93.998 180.657C93.998 210.076 79.3065 236.724 78.5696 238.041C77.9839 239.088 76.9412 239.8 75.7524 239.964C74.5632 240.128 73.3662 239.726 72.518 238.878ZM142.253 168.884L168.885 142.252C174.829 136.309 178.103 128.406 178.103 120C178.103 111.594 174.829 103.692 168.885 97.7483L142.253 71.1165C129.984 58.8464 110.019 58.8464 97.7492 71.1165L71.1174 97.7483C65.1731 103.692 61.8999 111.594 61.8999 120C61.8999 128.406 65.1731 136.309 71.1174 142.252L97.7491 168.884C110.019 181.154 129.983 181.154 142.253 168.884ZM225.858 65.2514C224.824 62.1145 223.93 59.4051 220.112 55.587C216.293 51.768 213.584 50.8744 210.447 49.8403C206.896 48.6689 202.871 47.3413 197.765 42.2354C192.659 37.129 191.331 33.1042 190.16 29.5532C189.126 26.4159 188.232 23.7069 184.413 19.8884C180.595 16.0698 177.885 15.1762 174.749 14.1417C172.16 13.2879 169.32 12.3509 165.992 9.92841C161.186 20.084 150.252 46.8556 154.757 72.0137C156.162 68.8365 157.924 65.3795 160.047 61.6585C161.096 59.8212 163.435 59.1819 165.272 60.2308C166.51 60.9375 167.203 62.2299 167.203 63.5606C167.203 64.204 167.042 64.8566 166.699 65.4556C163.909 70.3455 161.803 74.691 160.399 78.4289L161.574 79.6038C174.286 74.8299 191.022 62.9897 200.176 56.1053C201.867 54.8344 204.267 55.1739 205.539 56.8641C206.057 57.554 206.308 58.3618 206.308 59.163C206.308 60.3257 205.781 61.4742 204.78 62.2268C194.332 70.0845 180.169 79.8663 167.999 85.2453C193.155 89.7461 219.921 78.8123 230.072 74.0078C227.649 70.6805 226.712 67.8403 225.858 65.2514ZM85.2472 167.999C79.8682 180.168 70.0884 194.329 62.2318 204.775C60.9603 206.466 58.5598 206.806 56.8691 205.534C55.1783 204.263 54.8383 201.862 56.1103 200.171C62.9936 191.019 74.8328 174.286 79.6062 161.574L78.4282 160.396C65.7164 165.17 48.9807 177.01 39.8265 183.895C38.1358 185.166 35.7353 184.826 34.4638 183.136C33.1929 181.446 33.5324 179.044 35.2226 177.773C45.6713 169.915 59.8338 160.133 72.0043 154.754C46.8478 150.253 20.0812 161.187 9.92976 165.992C12.3522 169.32 13.2892 172.16 14.143 174.748C15.1776 177.885 16.0712 180.595 19.8897 184.413C23.7083 188.232 26.4172 189.125 29.5546 190.159C33.1055 191.331 37.1304 192.658 42.2367 197.764C47.3426 202.871 48.6703 206.895 49.8417 210.446C50.8757 213.584 51.7693 216.293 55.5884 220.111C59.4064 223.93 62.1159 224.823 65.2527 225.858C67.8411 226.712 70.6818 227.649 74.0091 230.071C78.8147 219.917 89.7464 193.152 85.2472 167.999Z" fill="#F0E25E"/>
<path d="M168.336 48.4289C171.217 44.161 174.391 39.7179 177.771 35.2254C179.043 33.5346 181.444 33.1951 183.134 34.4665C184.135 35.2197 184.662 36.3676 184.662 37.5304C184.662 38.3316 184.411 39.1394 183.893 39.8293C180.591 44.2192 177.493 48.5545 174.684 52.7147C173.501 54.4682 171.12 54.9298 169.367 53.7462C167.614 52.562 167.151 50.1819 168.336 48.4289Z" fill="#F0E25E"/>
<path d="M86.8465 157.966C86.8373 157.957 71.2185 142.338 71.2185 142.338C65.2742 136.395 62.001 128.493 62.001 120.086C62.001 111.68 65.2742 103.778 71.2185 97.8344L97.8503 71.2026C110.12 58.9325 130.085 58.9325 142.354 71.2026L168.986 97.8344C174.93 103.778 178.204 111.68 178.204 120.086C178.204 128.493 174.93 136.395 168.986 142.338L142.354 168.97C130.085 181.24 110.12 181.24 97.8503 168.97L86.8465 157.966ZM92.8828 97.8344L108.682 82.0347C109.43 81.2866 109.804 80.3062 109.804 79.3263C109.804 78.3464 109.43 77.366 108.682 76.6179C107.186 75.1222 104.762 75.1222 103.266 76.6179L87.4665 92.4175C85.9713 93.9137 85.9713 96.3382 87.4665 97.8338C88.9621 99.33 91.3866 99.33 92.8828 97.8344ZM82.0501 136.923C83.5463 135.427 83.5458 133.002 82.0506 131.507C75.7535 125.209 75.7535 114.963 82.0506 108.667C82.7982 107.919 83.172 106.939 83.172 105.959C83.172 104.979 82.7982 103.998 82.0506 103.25C80.5545 101.755 78.13 101.755 76.6343 103.25C67.3509 112.534 67.3509 127.64 76.6343 136.923C78.1294 138.419 80.5545 138.419 82.0501 136.923Z" fill="#E9CA2B"/>
<path d="M167.999 85.2457C180.169 79.8666 194.332 70.0848 204.781 62.2271C205.782 61.4745 206.308 60.326 206.308 59.1633C206.308 58.3621 206.058 57.5543 205.539 56.8644C204.268 55.1737 201.867 54.8341 200.177 56.1056C191.023 62.99 174.287 74.8307 161.575 79.6041L160.4 78.4292C161.804 74.6913 163.91 70.3458 166.7 65.4559C167.043 64.8569 167.204 64.2043 167.204 63.5609C167.204 62.2307 166.511 60.9378 165.273 60.2311C163.435 59.1822 161.096 59.8215 160.048 61.6588C157.925 65.3798 156.163 68.8368 154.758 72.014C150.253 46.8559 161.187 20.0843 165.993 9.92871C169.321 12.3512 172.161 13.2882 174.75 14.142C177.886 15.1765 180.596 16.0701 184.414 19.8887C188.233 23.7072 189.127 26.4162 190.161 29.5535C191.332 33.1045 192.66 37.1293 197.766 42.2357C202.872 47.3416 206.897 48.6692 210.448 49.8406C213.585 50.8747 216.294 51.7683 220.113 55.5873C223.931 59.4054 224.825 62.1148 225.859 65.2517C226.713 67.8401 227.65 70.6807 230.073 74.0081C219.922 78.8126 193.155 89.7464 167.999 85.2457ZM174.685 52.7145C177.494 48.5543 180.592 44.2185 183.894 39.8291C184.412 39.1392 184.663 38.3314 184.663 37.5302C184.663 36.3675 184.136 35.2196 183.135 34.4664C181.445 33.1954 179.044 33.535 177.772 35.2252C174.393 39.7183 171.218 44.1608 168.336 48.4287C167.152 50.1817 167.614 52.5618 169.368 53.7455C171.12 54.9296 173.501 54.4675 174.685 52.7145Z" fill="#E9CA2B"/>
<path d="M65.2537 225.857C62.1169 224.823 59.4074 223.929 55.5894 220.111C51.7704 216.292 50.8767 213.583 49.8427 210.446C48.6713 206.895 47.3436 202.87 42.2378 197.764C37.1314 192.658 33.1066 191.33 29.5556 190.159C26.4182 189.125 23.7093 188.231 19.8908 184.412C16.0722 180.594 15.1786 177.884 14.1441 174.748C13.2903 172.159 12.3532 169.319 9.93079 165.991C20.0823 161.187 46.8488 150.252 72.0054 154.754C59.8349 160.133 45.6723 169.914 35.2237 177.773C33.5329 179.044 33.1934 181.445 34.4649 183.135C35.7363 184.826 38.1369 185.166 39.8276 183.894C48.9818 177.01 65.7174 165.169 78.4292 160.395L79.6072 161.573C74.8338 174.285 62.9952 191.018 56.1113 200.171C54.8398 201.861 55.1799 204.262 56.8701 205.533C58.5603 206.804 60.9613 206.465 62.2328 204.775C70.0895 194.328 79.8692 180.168 85.2482 167.998C89.748 193.152 78.8157 219.916 74.0101 230.07C70.6828 227.648 67.8422 226.711 65.2537 225.857Z" fill="#E9CA2B"/>
<path d="M76.5337 103.163C78.0299 101.668 80.4544 101.668 81.95 103.163C82.6976 103.912 83.0714 104.892 83.0714 105.872C83.0714 106.852 82.6976 107.832 81.95 108.58C75.6529 114.876 75.6529 125.122 81.95 131.421C83.4452 132.916 83.4457 135.341 81.9495 136.836C80.4539 138.332 78.0288 138.332 76.5337 136.836C67.2503 127.553 67.2503 112.446 76.5337 103.163Z" fill="white"/>
<path d="M87.3657 92.3313L103.165 76.5317C104.662 75.036 107.086 75.036 108.582 76.5317C109.329 77.2797 109.703 78.2602 109.703 79.2401C109.703 80.22 109.329 81.2004 108.582 81.9485L92.7821 97.7481C91.2859 99.2438 88.8614 99.2438 87.3657 97.7481C85.8706 96.2514 85.8706 93.8269 87.3657 92.3313Z" fill="white"/>
</svg>
