<svg width="240" height="240" viewBox="0 0 240 240" fill="none" xmlns="http://www.w3.org/2000/svg">
<path d="M76.5318 103.164C78.0279 101.668 80.4524 101.668 81.9481 103.164C82.6957 103.912 83.0694 104.892 83.0694 105.872C83.0694 106.852 82.6957 107.832 81.9481 108.58C75.6509 114.876 75.6509 125.123 81.9481 131.421C83.4432 132.916 83.4437 135.341 81.9476 136.837C80.4519 138.332 78.0269 138.332 76.5318 136.836C67.2484 127.553 67.2484 112.446 76.5318 103.164Z" fill="white"/>
<path d="M87.3638 92.3314L103.163 76.5318C104.66 75.0361 107.084 75.0361 108.58 76.5318C109.327 77.2799 109.701 78.2603 109.701 79.2402C109.701 80.2201 109.327 81.2005 108.58 81.9486L92.7801 97.7482C91.284 99.2439 88.8594 99.2439 87.3638 97.7482C85.8686 96.2516 85.8686 93.8271 87.3638 92.3314Z" fill="white"/>
<path d="M72.5171 238.878C68.699 235.06 65.9896 234.166 62.8527 233.132C59.3018 231.961 55.2769 230.633 50.1706 225.527C45.0647 220.421 43.737 216.396 42.5656 212.845C41.5316 209.708 40.638 206.999 36.8189 203.18C33.0004 199.361 30.2915 198.467 27.1541 197.433C23.6031 196.262 19.5783 194.934 14.4719 189.828C9.36606 184.722 8.0384 180.697 6.86751 177.146C5.83296 174.009 4.93934 171.3 1.1208 167.482C0.273139 166.634 -0.130264 165.438 0.035693 164.249C0.199608 163.06 0.911947 162.018 1.95875 161.431C3.34922 160.654 32.9575 144.332 64.258 146.145C57.7831 138.953 54.2383 129.749 54.2383 119.999C54.2383 109.547 58.3086 99.7209 65.6985 92.3299L92.3303 65.6982C107.09 50.9387 130.802 50.4597 146.145 64.2577C144.335 32.9561 160.655 3.34987 161.432 1.9594C162.018 0.912594 163.061 0.200766 164.249 0.0363411C165.438 -0.128084 166.635 0.273277 167.483 1.12145C171.301 4.93999 174.01 5.83361 177.147 6.86816C180.698 8.03905 184.723 9.3667 189.829 14.4726C194.935 19.5789 196.263 23.6038 197.434 27.1548C198.468 30.2921 199.362 33.001 203.181 36.8196C207 40.6386 209.708 41.5323 212.846 42.5663C216.397 43.7377 220.422 45.0654 225.528 50.1712C230.634 55.2776 231.962 59.3024 233.132 62.8534C234.167 65.9902 235.061 68.6997 238.879 72.5177C239.602 73.2413 240 74.2171 240 75.2261C240 75.4003 239.989 75.5764 239.964 75.7511C239.8 76.9393 239.088 77.9821 238.041 78.5683C236.651 79.3465 207.042 95.6675 175.742 93.8547C182.217 101.047 185.762 110.251 185.762 120.001C185.762 130.453 181.691 140.279 174.301 147.67L147.67 174.302C132.909 189.062 109.193 189.54 93.85 175.738C93.9454 177.384 93.997 179.025 93.997 180.657C93.997 210.076 79.3055 236.724 78.5686 238.041C77.9829 239.088 76.9402 239.8 75.7514 239.964C74.5622 240.128 73.3652 239.726 72.5171 238.878ZM142.252 168.884L168.884 142.252C174.828 136.309 178.102 128.406 178.102 120C178.102 111.594 174.828 103.692 168.884 97.7483L142.252 71.1165C129.983 58.8464 110.018 58.8464 97.7482 71.1165L71.1164 97.7483C65.1721 103.692 61.8989 111.594 61.8989 120C61.8989 128.406 65.1721 136.309 71.1164 142.252L97.7482 168.884C110.018 181.154 129.982 181.154 142.252 168.884ZM225.857 65.2514C224.823 62.1145 223.929 59.4051 220.111 55.587C216.292 51.768 213.583 50.8744 210.446 49.8403C206.895 48.6689 202.87 47.3413 197.764 42.2354C192.658 37.129 191.33 33.1042 190.159 29.5532C189.125 26.4159 188.231 23.7069 184.412 19.8884C180.594 16.0698 177.885 15.1762 174.748 14.1417C172.159 13.2879 169.319 12.3509 165.991 9.92841C161.185 20.084 150.251 46.8556 154.756 72.0137C156.161 68.8365 157.923 65.3795 160.046 61.6585C161.095 59.8212 163.434 59.1819 165.271 60.2308C166.509 60.9375 167.202 62.2299 167.202 63.5606C167.202 64.204 167.041 64.8566 166.698 65.4556C163.908 70.3455 161.802 74.691 160.398 78.4289L161.573 79.6038C174.285 74.8299 191.021 62.9897 200.175 56.1053C201.866 54.8344 204.266 55.1739 205.538 56.8641C206.056 57.554 206.307 58.3618 206.307 59.163C206.307 60.3257 205.78 61.4742 204.779 62.2268C194.331 70.0845 180.168 79.8663 167.998 85.2453C193.154 89.7461 219.92 78.8123 230.071 74.0078C227.648 70.6805 226.711 67.8403 225.857 65.2514ZM85.2462 167.999C79.8672 180.168 70.0875 194.329 62.2308 204.775C60.9593 206.466 58.5588 206.806 56.8681 205.534C55.1774 204.263 54.8373 201.862 56.1093 200.171C62.9927 191.019 74.8318 174.286 79.6052 161.574L78.4272 160.396C65.7154 165.17 48.9798 177.01 39.8256 183.895C38.1348 185.166 35.7343 184.826 34.4629 183.136C33.1919 181.446 33.5314 179.044 35.2217 177.773C45.6703 169.915 59.8328 160.133 72.0034 154.754C46.8468 150.253 20.0802 161.187 9.92878 165.992C12.3512 169.32 13.2883 172.16 14.142 174.748C15.1766 177.885 16.0702 180.595 19.8888 184.413C23.7073 188.232 26.4162 189.125 29.5536 190.159C33.1046 191.331 37.1294 192.658 42.2358 197.764C47.3416 202.871 48.6693 206.895 49.8407 210.446C50.8747 213.584 51.7683 216.293 55.5874 220.111C59.4054 223.93 62.1149 224.823 65.2517 225.858C67.8401 226.712 70.6808 227.649 74.0081 230.071C78.8137 219.917 89.7455 193.152 85.2462 167.999Z" fill="#70D374"/>
<path d="M168.335 48.4289C171.216 44.161 174.39 39.7179 177.77 35.2254C179.042 33.5346 181.443 33.1951 183.133 34.4665C184.134 35.2197 184.661 36.3676 184.661 37.5304C184.661 38.3316 184.41 39.1394 183.892 39.8293C180.59 44.2192 177.492 48.5545 174.683 52.7147C173.5 54.4682 171.119 54.9298 169.366 53.7462C167.613 52.562 167.15 50.1819 168.335 48.4289Z" fill="#70D374"/>
<path d="M86.8456 157.966C86.8364 157.957 71.2175 142.338 71.2175 142.338C65.2732 136.395 62 128.493 62 120.086C62 111.68 65.2732 103.778 71.2175 97.8344L97.8493 71.2026C110.119 58.9325 130.084 58.9325 142.353 71.2026L168.985 97.8344C174.929 103.778 178.203 111.68 178.203 120.086C178.203 128.493 174.929 136.395 168.985 142.338L142.353 168.97C130.084 181.24 110.119 181.24 97.8493 168.97L86.8456 157.966ZM92.8818 97.8344L108.681 82.0347C109.429 81.2866 109.803 80.3062 109.803 79.3263C109.803 78.3464 109.429 77.366 108.681 76.6179C107.185 75.1222 104.761 75.1222 103.265 76.6179L87.4655 92.4175C85.9703 93.9137 85.9703 96.3382 87.4655 97.8338C88.9611 99.33 91.3856 99.33 92.8818 97.8344ZM82.0491 136.923C83.5453 135.427 83.5448 133.002 82.0497 131.507C75.7525 125.209 75.7525 114.963 82.0497 108.667C82.7972 107.919 83.171 106.939 83.171 105.959C83.171 104.979 82.7972 103.998 82.0497 103.25C80.5535 101.755 78.129 101.755 76.6333 103.25C67.3499 112.534 67.3499 127.64 76.6333 136.923C78.1285 138.419 80.5535 138.419 82.0491 136.923Z" fill="#43BF48"/>
<path d="M167.998 85.2457C180.169 79.8666 194.331 70.0848 204.78 62.2271C205.781 61.4745 206.308 60.326 206.308 59.1633C206.308 58.3621 206.057 57.5543 205.538 56.8644C204.267 55.1737 201.867 54.8341 200.176 56.1056C191.022 62.99 174.286 74.8307 161.574 79.6041L160.399 78.4292C161.803 74.6913 163.909 70.3458 166.699 65.4559C167.042 64.8569 167.203 64.2043 167.203 63.5609C167.203 62.2307 166.51 60.9378 165.272 60.2311C163.434 59.1822 161.095 59.8215 160.047 61.6588C157.924 65.3798 156.162 68.8368 154.757 72.014C150.252 46.8559 161.186 20.0843 165.992 9.92871C169.32 12.3512 172.16 13.2882 174.749 14.142C177.885 15.1765 180.595 16.0701 184.413 19.8887C188.232 23.7072 189.126 26.4162 190.16 29.5535C191.331 33.1045 192.659 37.1293 197.765 42.2357C202.871 47.3416 206.896 48.6692 210.447 49.8406C213.584 50.8747 216.293 51.7683 220.112 55.5873C223.93 59.4054 224.824 62.1148 225.858 65.2517C226.712 67.8401 227.649 70.6807 230.072 74.0081C219.921 78.8126 193.155 89.7464 167.998 85.2457ZM174.684 52.7145C177.493 48.5543 180.591 44.2185 183.893 39.8291C184.411 39.1392 184.662 38.3314 184.662 37.5302C184.662 36.3675 184.135 35.2196 183.134 34.4664C181.444 33.1954 179.043 33.535 177.771 35.2252C174.392 39.7183 171.217 44.1608 168.336 48.4287C167.151 50.1817 167.613 52.5618 169.367 53.7455C171.12 54.9296 173.5 54.4675 174.684 52.7145Z" fill="#43BF48"/>
<path d="M65.2528 225.857C62.1159 224.823 59.4065 223.929 55.5884 220.111C51.7694 216.292 50.8758 213.583 49.8417 210.446C48.6703 206.895 47.3427 202.87 42.2368 197.764C37.1304 192.658 33.1056 191.33 29.5546 190.159C26.4173 189.125 23.7083 188.231 19.8898 184.412C16.0712 180.594 15.1776 177.884 14.1431 174.748C13.2893 172.159 12.3523 169.319 9.92981 165.991C20.0813 161.187 46.8479 150.252 72.0044 154.754C59.8339 160.133 45.6713 169.914 35.2227 177.773C33.532 179.044 33.1924 181.445 34.4639 183.135C35.7354 184.826 38.1359 185.166 39.8266 183.894C48.9808 177.01 65.7164 165.169 78.4282 160.395L79.6063 161.573C74.8328 174.285 62.9942 191.018 56.1103 200.171C54.8388 201.861 55.1789 204.262 56.8691 205.533C58.5593 206.804 60.9603 206.465 62.2318 204.775C70.0885 194.328 79.8682 180.168 85.2473 167.998C89.747 193.152 78.8148 219.916 74.0092 230.07C70.6818 227.648 67.8412 226.711 65.2528 225.857Z" fill="#43BF48"/>
<path d="M76.5327 103.163C78.0289 101.668 80.4534 101.668 81.9491 103.163C82.6966 103.912 83.0704 104.892 83.0704 105.872C83.0704 106.852 82.6966 107.832 81.9491 108.58C75.6519 114.876 75.6519 125.122 81.9491 131.421C83.4442 132.916 83.4447 135.341 81.9485 136.836C80.4529 138.332 78.0279 138.332 76.5327 136.836C67.2493 127.553 67.2493 112.446 76.5327 103.163Z" fill="white"/>
<path d="M87.3648 92.3313L103.164 76.5317C104.661 75.036 107.085 75.036 108.581 76.5317C109.328 77.2797 109.702 78.2602 109.702 79.2401C109.702 80.22 109.328 81.2004 108.581 81.9485L92.7811 97.7481C91.2849 99.2438 88.8604 99.2438 87.3648 97.7481C85.8696 96.2514 85.8696 93.8269 87.3648 92.3313Z" fill="white"/>
</svg>
