<svg width="200" height="200" viewBox="0 0 200 200" fill="none" xmlns="http://www.w3.org/2000/svg">
<path d="M167.366 93.1133C165.661 90.757 165.516 87.6379 166.902 85.0809C171.211 77.1305 173.641 68.0125 173.595 58.3234C173.448 27.527 147.991 2.53633 117.197 2.93438C86.793 3.32735 62.2668 28.0965 62.2668 58.5938C62.2668 70.9371 66.2844 82.3418 73.0832 91.5719C76.023 95.5633 75.8184 101.089 72.4981 104.77C67.4563 110.36 56.5973 113.987 33.5961 98.5984C31.0738 96.9109 28.1125 95.9957 25.0777 95.9957C17.5141 95.9957 11.1113 101.542 9.99531 109.023C5.9211 136.332 5.40195 197.07 81.4074 197.07H108.361C179.647 197.07 198.636 136.326 167.366 93.1133Z" fill="#EAFFEA"/>
<path d="M33.4609 133.495C30.1371 136.777 29.5641 141.939 32.0965 145.864C39.4922 157.325 58.0141 178.58 93.6648 178.58C115.375 178.58 138.329 165.002 142.604 142.522C146.134 123.955 135.306 101.259 114.04 102.235C98.4566 102.95 89.3418 116.422 76.173 122.65C66.9219 127.026 56.8941 129.723 46.7156 130.73C41.8711 131.209 37.3613 129.644 33.4609 133.495Z" fill="#EAFFEA"/>
<path d="M165.075 29.091C165.075 29.091 166.287 46.4695 158.237 54.341C150.186 62.2125 163.604 74.5566 179.526 62.9281C181.813 61.2578 184.13 60.1965 186.421 59.6035C189.37 58.8406 191.442 56.2035 191.442 53.1578C191.442 50.2289 189.534 47.623 186.726 46.7929C184.858 46.241 182.487 45.9113 179.705 46.2906C179.705 46.2906 189.333 37.8965 186.954 28.1836C186.186 25.0441 182.459 23.7375 179.812 25.5929C176.39 27.9914 171.079 30.5203 165.075 29.091Z" fill="#EAFFEA"/>
<path d="M113.896 99.3086C103.145 99.8023 95.359 105.737 87.8289 111.478C85.0641 113.586 82.2051 115.765 79.2813 117.59C77.909 118.447 77.491 120.254 78.3477 121.627C79.2043 123 81.0121 123.417 82.3844 122.561C85.5399 120.591 88.5094 118.327 91.3809 116.138C98.509 110.704 105.241 105.572 114.164 105.162C123.308 104.741 129.197 109.236 132.53 113.08C138.848 120.364 141.668 131.707 139.716 141.975C135.557 163.849 112.88 175.652 93.6555 175.652C59.8438 175.652 42.1102 155.994 34.5488 144.276C32.7797 141.534 33.184 137.877 35.5098 135.58C37.3738 133.74 39.2715 133.686 42.7406 133.746C44.0938 133.77 45.493 133.794 46.9945 133.646C55.4418 132.81 63.6719 130.861 71.4555 127.852C72.9645 127.268 73.7148 125.572 73.1316 124.063C72.5484 122.553 70.852 121.803 69.3426 122.386C62.0523 125.205 54.3391 127.031 46.418 127.814C45.2555 127.93 44.084 127.909 42.8434 127.887C39.2141 127.825 35.0988 127.752 31.3934 131.411C27.1043 135.646 26.3606 142.393 29.6258 147.453C33.4477 153.375 40.1953 161.912 50.6387 168.95C63.0066 177.285 77.4793 181.511 93.6555 181.511C105.275 181.511 116.878 177.918 126.328 171.393C136.689 164.239 143.309 154.445 145.472 143.069C147.747 131.107 144.404 117.828 136.957 109.241C130.961 102.326 122.989 98.8925 113.896 99.3086Z" fill="#F58839"/>
<path d="M153.047 41.3515L151.638 35.3871C151.266 33.8125 149.688 32.8382 148.113 33.2093C146.538 33.5816 145.563 35.1593 145.935 36.734C145.935 36.734 147.343 42.6929 147.344 42.6984C147.709 44.2453 149.324 45.2406 150.869 44.8761C152.443 44.5043 153.419 42.9265 153.047 41.3515Z" fill="#F58839"/>
<path d="M153.046 41.3515L151.637 35.3871C151.266 33.8125 149.688 32.8382 148.113 33.2093C146.538 33.5816 145.563 35.1593 145.935 36.734C145.935 36.734 147.343 42.6929 147.344 42.6984C147.709 44.2453 149.324 45.2406 150.869 44.8761C152.443 44.5043 153.419 42.9265 153.046 41.3515Z" fill="#151515"/>
<path d="M187.547 43.9836C187.014 43.8262 186.475 43.6922 185.929 43.582C188.648 39.7168 191.368 33.927 189.791 27.4867C188.55 22.4223 182.346 20.2324 178.121 23.1938C175.92 24.7371 172.481 26.5766 168.602 26.5766C168.011 26.5766 167.421 26.5285 166.837 26.4441C161.7 18.675 154.745 12.166 146.642 7.57539C137.895 2.61953 127.96 0 117.913 0C117.659 0 117.405 0.0015625 117.15 0.00507813C101.661 0.205469 87.1313 6.38867 76.2371 17.4164C65.3332 28.4535 59.3281 43.0773 59.3281 58.5938C59.3281 71.1914 63.2656 83.1957 70.7152 93.3094C72.8422 96.1973 72.6734 100.192 70.3137 102.808C68.0137 105.358 64.8496 106.651 60.9086 106.651C54.2621 106.651 45.618 103.122 35.2164 96.1629C32.1875 94.1367 28.6785 93.0656 25.0691 93.0656C15.993 93.0656 8.43125 99.5945 7.08907 108.59C4.60352 125.247 3.16953 156.363 21.4871 177.616C34.2883 192.469 54.4453 200 81.3984 200H108.352C125.448 200 140.338 196.615 152.606 189.94C163.836 183.83 172.68 174.905 178.183 164.131C189.458 142.054 186.22 114.183 169.73 91.3957C168.697 89.9684 168.597 88.0836 169.468 86.4766C172.506 80.8715 174.584 74.8527 175.661 68.5641C177.543 67.7223 179.415 66.6301 181.244 65.2941C183.112 63.9305 185.097 62.9699 187.145 62.4398C191.395 61.3406 194.363 57.5238 194.363 53.1582C194.363 48.9422 191.56 45.1695 187.547 43.9836ZM169.318 70.4305C168.261 75.0566 166.586 79.4988 164.317 83.6844C162.392 87.2355 162.654 91.6105 164.984 94.8305C180.176 115.826 183.234 141.359 172.965 161.466C167.931 171.323 160.139 179.171 149.806 184.793C138.406 190.996 124.459 194.141 108.352 194.141H81.3984C56.227 194.141 37.5633 187.294 25.9254 173.791C18.7176 165.428 7.43907 145.95 12.884 109.455C13.7941 103.354 18.9188 98.9254 25.0688 98.9254C27.5141 98.9254 29.8965 99.6543 31.9578 101.033C43.341 108.649 53.0813 112.51 60.9082 112.51C66.4984 112.51 71.2551 110.512 74.6645 106.732C78.8797 102.059 79.2027 94.9523 75.4328 89.834C68.7305 80.7352 65.1875 69.932 65.1875 58.5938C65.1875 44.6289 70.5918 31.4676 80.4055 21.534C90.2105 11.609 103.287 6.04414 117.226 5.86367C135.446 5.62109 152.22 14.6797 162.175 30.0098C162.175 30.0148 162.176 30.0199 162.176 30.025C162.277 32.8449 162.131 35.6906 161.747 38.4863C161.161 42.8535 159.718 48.7855 156.179 52.2461C153.296 55.0656 152.03 59.2359 153.591 63.0637C155.672 68.1703 161.39 70.6203 166.615 70.6203C167.518 70.6207 168.425 70.5547 169.318 70.4305ZM185.677 56.7676C182.91 57.4836 180.256 58.7605 177.789 60.5625C175.545 62.2008 173.485 63.223 171.67 63.8508C168.484 64.9539 164.69 65.2777 161.642 63.5805C160.315 62.8414 159.422 61.8453 159.017 60.852C158.25 58.9695 159.278 57.4117 160.276 56.4359C160.28 56.432 160.284 56.4281 160.288 56.4242C163.91 52.8902 165.878 47.859 166.901 42.9879C166.903 42.9766 166.905 42.9652 166.908 42.9539C167.777 38.9348 168.019 35.0848 168.058 32.4277C172.519 32.5594 177.161 31.0219 181.485 27.9918C182.412 27.3422 183.818 27.7305 184.1 28.8805C186.018 36.7117 177.848 44.0141 177.771 44.0824C176.795 44.9332 176.493 46.3234 177.029 47.502C177.564 48.6809 178.808 49.3687 180.092 49.1937C182.088 48.9223 184.054 49.0613 185.887 49.6031C189.453 50.657 189.188 55.8594 185.677 56.7676Z" fill="#F58839"/>
</svg>
