<svg width="200" height="200" viewBox="0 0 200 200" fill="none" xmlns="http://www.w3.org/2000/svg">
<g clip-path="url(#clip0_4232_2)">
<path d="M196.133 109.3C192.4 117.867 178.533 145.333 151.567 160.2C144.24 154.053 138.26 146.462 134 137.9L127.333 116.2C126.891 113.041 126.668 109.856 126.667 106.667C126.655 96.4664 128.878 86.3875 133.18 77.1388C137.482 67.8901 143.758 59.6962 151.567 53.1333C178.533 68 192.4 95.4666 196.133 104.033C196.48 104.868 196.658 105.763 196.658 106.667C196.658 107.57 196.48 108.465 196.133 109.3Z" fill="#EAFFEA"/>
<path d="M151.567 160.2C139.878 166.702 126.709 170.077 113.333 170C79.0335 170 56.7335 149.3 43.9001 131.567C43.5034 132.947 43.0019 134.296 42.4001 135.6C33.9668 154.133 11.7668 154.6 11.7668 154.6C11.7668 154.6 -2.43322 137.533 6.03345 119C8.35678 113.956 12.0681 109.678 16.7335 106.667C12.0681 103.655 8.35678 99.377 6.03345 94.3333C-2.43322 75.8 11.7668 58.7333 11.7668 58.7333C11.7668 58.7333 33.9668 59.2 42.4001 77.7333C43.0019 79.0377 43.5034 80.386 43.9001 81.7667C52.3328 69.7359 63.3743 59.7656 76.2001 52.6C87.6022 46.4388 100.374 43.2517 113.333 43.3333C119.162 43.3193 124.975 43.9452 130.667 45.2C137.982 46.8143 145.023 49.4869 151.567 53.1333C143.758 59.6962 137.482 67.8901 133.18 77.1388C128.879 86.3875 126.655 96.4664 126.667 106.667C126.668 109.856 126.891 113.041 127.333 116.2L134 137.9C138.26 146.462 144.24 154.053 151.567 160.2Z" fill="#EAFFEA"/>
<path d="M130.667 45.2C124.975 43.9452 119.162 43.3192 113.333 43.3333C100.373 43.2517 87.602 46.4388 76.2 52.6L76.1667 52.5666C74.5667 38.7 71.1666 26.6666 96.6667 26.6666C117.767 26.6666 126.867 37.3666 130.667 45.2Z" fill="#EAFFEA"/>
<path d="M134 137.9L127.333 116.2C126.891 113.041 126.668 109.856 126.667 106.667C126.655 96.4665 128.878 86.3876 133.18 77.1389C137.482 67.8901 143.758 59.6962 151.567 53.1334C145.023 49.487 137.982 46.8144 130.667 45.2C124.975 43.9453 119.162 43.3193 113.333 43.3334C111.633 43.3334 109.967 43.3934 108.333 43.4934C112.483 43.7339 116.607 44.3046 120.667 45.2C127.982 46.8144 135.023 49.487 141.567 53.1334C133.758 59.6962 127.482 67.8901 123.18 77.1389C118.878 86.3876 116.655 96.4665 116.667 106.667C116.668 109.856 116.891 113.041 117.333 116.2L124 137.9C128.26 146.462 134.24 154.054 141.567 160.2C131.465 165.825 120.23 169.115 108.69 169.827C110.22 169.91 111.75 170 113.333 170C126.709 170.077 139.878 166.702 151.567 160.2C144.24 154.054 138.26 146.462 134 137.9Z" fill="#151515" fill-opacity="0.25"/>
<path d="M196.133 104.033C192.4 95.4666 178.533 68 151.567 53.1333C150.18 54.3033 148.853 55.5433 147.567 56.8C170.593 72.1333 182.693 96.1166 186.137 104.02C186.483 104.855 186.662 105.75 186.662 106.653C186.662 107.557 186.483 108.452 186.137 109.287C182.693 117.187 170.6 141.147 147.59 156.49C148.88 157.757 150.177 159.023 151.57 160.187C178.537 145.32 192.403 117.853 196.137 109.287C196.832 107.604 196.831 105.715 196.133 104.033Z" fill="#151515" fill-opacity="0.25"/>
<path d="M126.887 116.15C124.356 116.072 121.823 116.203 119.313 116.543C121.635 117.185 123.648 118.642 124.984 120.647C126.319 122.651 126.888 125.07 126.587 127.46C126.072 134.979 122.849 142.057 117.517 147.383C113.638 150.481 108.953 152.402 104.017 152.92C104.806 153.149 105.621 153.28 106.443 153.31C113.953 153.949 121.441 151.844 127.517 147.383C132.849 142.057 136.072 134.979 136.587 127.46C136.764 126.067 136.647 124.653 136.244 123.308C135.841 121.964 135.16 120.718 134.246 119.653C133.332 118.587 132.205 117.725 130.938 117.121C129.67 116.518 128.29 116.187 126.887 116.15Z" fill="#151515" fill-opacity="0.25"/>
<path d="M163.333 106.667C167.015 106.667 170 103.682 170 100C170 96.3181 167.015 93.3334 163.333 93.3334C159.652 93.3334 156.667 96.3181 156.667 100C156.667 103.682 159.652 106.667 163.333 106.667Z" fill="#F5F5F5"/>
<path d="M3.00002 117.613C-6.22998 137.823 8.57002 155.97 9.20669 156.733C9.51938 157.109 9.91077 157.411 10.3532 157.618C10.7955 157.826 11.2781 157.933 11.7667 157.933H11.8367C12.8067 157.91 35.23 157.17 44.7767 138.23C58.4867 155.373 80.6434 173.333 113.333 173.333C169.097 173.333 194.627 121.087 199.177 110.617C199.716 109.37 199.994 108.025 199.994 106.667C199.994 105.308 199.716 103.964 199.177 102.717C195.197 93.5601 175.177 52.4534 132.913 42.2834C128.717 34.5967 118.79 23.3334 96.6667 23.3334C85.97 23.3334 79.2034 25.3567 75.3634 29.7067C70.6234 35.08 71.54 42.3934 72.51 50.1367L72.5867 50.76C61.8744 57.059 52.4399 65.3131 44.7734 75.0934C35.19 56.15 12.8067 55.41 11.8367 55.3867C11.338 55.3868 10.8451 55.494 10.3913 55.701C9.93759 55.908 9.53361 56.2101 9.20669 56.5867C8.57002 57.3634 -6.22998 75.51 3.00002 95.7067C4.91343 99.9152 7.72209 103.656 11.23 106.667C7.72152 109.672 4.91258 113.408 3.00002 117.613ZM193.063 105.373C193.241 105.781 193.333 106.222 193.333 106.667C193.333 107.112 193.241 107.552 193.063 107.96C190.063 114.863 177.32 141.14 152.033 156.093C146.167 150.835 141.293 144.565 137.643 137.583C138.733 134.433 139.487 131.176 139.893 127.867C140.304 124.719 139.571 121.529 137.827 118.877C136.084 116.225 133.446 114.287 130.393 113.417C130.145 111.175 130.014 108.922 130 106.667C129.995 97.3424 131.95 88.1211 135.741 79.6018C139.531 71.0825 145.07 63.4557 152 57.2167C177.307 72.1634 190.06 98.4667 193.063 105.373ZM133.277 127.04C132.577 132.66 130.637 140.31 125.347 144.847C120.057 149.383 112.2 150.133 106.543 149.97C105.604 149.948 104.681 149.729 103.832 149.327C102.983 148.924 102.229 148.349 101.617 147.636C101.005 146.924 100.549 146.091 100.28 145.191C100.011 144.291 99.9336 143.345 100.053 142.413C100.757 136.79 102.7 129.133 107.987 124.603C113.024 120.932 119.176 119.114 125.4 119.457C125.877 119.457 126.34 119.457 126.79 119.48C127.729 119.503 128.653 119.722 129.501 120.125C130.35 120.527 131.104 121.104 131.716 121.816C132.327 122.529 132.782 123.362 133.051 124.262C133.32 125.162 133.397 126.109 133.277 127.04ZM80.3634 34.1167C82.7734 31.3867 88.26 30 96.6667 30C110.697 30 118.92 34.97 123.743 40.6334C120.289 40.2122 116.813 40.0007 113.333 40C101.445 39.9354 89.6887 42.4952 78.9034 47.4967C78.2134 41.7967 77.8734 36.94 80.3634 34.1167ZM18.58 109.44C19.0365 109.136 19.4109 108.723 19.6698 108.239C19.9286 107.756 20.0641 107.215 20.0641 106.667C20.0641 106.118 19.9286 105.578 19.6698 105.094C19.4109 104.61 19.0365 104.198 18.58 103.893C14.4325 101.222 11.1315 97.4254 9.06336 92.9467C2.86002 79.3734 10.5067 66.3334 13.35 62.2C18.33 62.76 33.1967 65.5334 39.39 79.17C39.6969 79.8329 39.9684 80.5117 40.2034 81.2034C37.5967 84.92 35.3834 88.4867 33.5667 91.69C33.3509 92.0711 33.2122 92.4909 33.1587 92.9256C33.1051 93.3602 33.1377 93.8011 33.2546 94.2232C33.3714 94.6452 33.5702 95.0401 33.8397 95.3853C34.1092 95.7305 34.444 96.0192 34.825 96.2351C35.2061 96.4509 35.6259 96.5895 36.0605 96.6431C36.4952 96.6966 36.9361 96.664 37.3581 96.5472C37.7802 96.4303 38.1751 96.2315 38.5203 95.962C38.8655 95.6926 39.1542 95.3578 39.37 94.9767C49.6 76.9334 72.8167 46.6667 113.333 46.6667C124.55 46.617 135.633 49.0914 145.763 53.9067C138.664 60.7371 133.018 68.9312 129.164 77.9975C125.309 87.0637 123.326 96.8152 123.333 106.667C123.333 108.713 123.453 110.78 123.633 112.847C116.404 112.779 109.362 115.139 103.633 119.55C97.6171 125.381 93.9799 133.237 93.4267 141.597C93.1934 143.449 93.3504 145.33 93.8877 147.118C94.4249 148.907 95.3305 150.563 96.5462 151.98C97.7618 153.397 99.2607 154.544 100.946 155.347C102.632 156.15 104.467 156.592 106.333 156.643C106.843 156.643 107.363 156.667 107.897 156.667C115.722 157.031 123.427 154.641 129.673 149.913C131.371 148.442 132.86 146.745 134.097 144.87C137.352 150.201 141.286 155.087 145.8 159.403C135.661 164.232 124.564 166.714 113.333 166.667C72.8167 166.667 49.6 136.4 39.37 118.357C38.9342 117.587 38.2105 117.022 37.3581 116.786C36.5058 116.55 35.5946 116.663 34.825 117.098C34.0555 117.534 33.4905 118.258 33.2546 119.11C33.0186 119.963 33.1309 120.874 33.5667 121.643C35.3834 124.847 37.5967 128.413 40.2034 132.13C39.9598 132.84 39.6805 133.538 39.3667 134.22C33.19 147.793 18.3334 150.577 13.35 151.133C10.5034 147 2.86336 133.957 9.07002 120.373C11.1377 115.9 14.4363 112.108 18.58 109.44Z" fill="#02A9F4"/>
<path d="M163.333 110C165.311 110 167.244 109.414 168.889 108.315C170.533 107.216 171.815 105.654 172.572 103.827C173.329 102 173.527 99.9889 173.141 98.0491C172.755 96.1093 171.803 94.3275 170.404 92.9289C169.006 91.5304 167.224 90.578 165.284 90.1922C163.344 89.8063 161.334 90.0043 159.506 90.7612C157.679 91.5181 156.117 92.7998 155.019 94.4443C153.92 96.0888 153.333 98.0222 153.333 100C153.333 102.652 154.387 105.196 156.262 107.071C158.138 108.946 160.681 110 163.333 110ZM163.333 96.6667C163.993 96.6667 164.637 96.8622 165.185 97.2284C165.733 97.5947 166.161 98.1153 166.413 98.7244C166.665 99.3335 166.731 100.004 166.603 100.65C166.474 101.297 166.156 101.891 165.69 102.357C165.224 102.823 164.63 103.141 163.984 103.269C163.337 103.398 162.667 103.332 162.058 103.08C161.449 102.827 160.928 102.4 160.562 101.852C160.195 101.304 160 100.659 160 100C160 99.116 160.351 98.2681 160.976 97.643C161.601 97.0179 162.449 96.6667 163.333 96.6667Z" fill="#02A9F4"/>
</g>
<defs>
<clipPath id="clip0_4232_2">
<rect width="200" height="200" fill="white"/>
</clipPath>
</defs>
</svg>
