<svg width="150" height="150" viewBox="0 0 150 150" fill="none" xmlns="http://www.w3.org/2000/svg">
<path d="M113.395 45.0367C104.267 48.5088 96.0903 54.2348 89.5719 61.7201C94.418 52.9566 97.1131 43.0909 97.4199 32.992C97.4199 11.9071 74.5618 4.00024 74.5618 4.00024C74.5618 4.00024 51.7037 11.9071 51.7037 32.992C52.0104 43.0909 54.7055 52.9566 59.5516 61.7201C53.0218 54.2731 44.8463 48.584 35.7284 45.1421C16.4006 38.5268 2.10156 58.6365 2.10156 58.6365C2.10156 58.6365 2.27935 83.6484 21.6072 90.2638C30.951 93.0642 40.8139 93.4443 50.3322 91.3708C41.4432 95.4983 33.671 101.835 27.7026 109.82C15.7656 126.872 29.7853 147.219 29.7853 147.219C29.7853 147.219 52.6434 154.757 64.682 137.705C70.1885 129.267 73.5839 119.539 74.5618 109.398C75.5684 119.475 78.9626 129.136 84.4416 137.52C96.3786 154.573 119.338 147.035 119.338 147.035C119.338 147.035 133.358 126.688 121.421 109.636C115.466 101.669 107.723 95.335 98.8676 91.1863C108.36 93.2607 118.199 92.8806 127.516 90.0793C146.844 83.5694 147.022 58.452 147.022 58.452C147.022 58.452 132.723 38.5268 113.395 45.0367Z" fill="#EAFFEA"/>
<path d="M97.4193 32.9917C97.4193 49.517 88.1745 66.7276 77.9646 79.1677C76.3308 77.6338 73.9306 77.3677 72.0214 78.5088C68.4333 72.4815 64.2543 66.8553 59.5511 61.7199C54.705 52.9564 52.0099 43.0907 51.7031 32.9917C51.7031 17.3626 64.2497 9.00766 70.7516 5.68679C71.9877 5.04584 73.2599 4.48256 74.5612 4C74.5612 4 97.4193 11.9068 97.4193 32.9917Z" fill="#EAFFEA"/>
<path d="M89.8 32.9917C89.8 49.0162 81.3171 65.1198 71.5389 77.7971C68.0683 72.0376 64.0524 66.6518 59.5511 61.7199C59.9828 61.7199 51.7031 49.0426 51.7031 32.9917C51.7031 17.3625 64.2497 9.00764 70.7516 5.68677C77.2534 9.00764 89.8 17.3625 89.8 32.9917Z" fill="#EAFFEA"/>
<path d="M69.4822 84.1753C62.8612 85.8253 56.4256 88.1928 50.2814 91.2387C40.7463 93.2976 30.8723 92.9268 21.5056 90.1581C2.17778 83.6482 2 58.5308 2 58.5308C2 58.5308 16.4006 38.5265 35.7284 45.0364C50.9672 50.1495 63.6661 64.4873 72.022 78.5087C70.0714 79.617 69.0422 81.9131 69.4822 84.1753Z" fill="#EAFFEA"/>
<path d="M74.5623 109.398C73.5556 119.474 70.1615 129.136 64.6825 137.52C52.7455 154.572 29.7858 147.035 29.7858 147.035C29.7858 147.035 15.7661 126.688 27.7031 109.635C36.9988 96.3518 54.2439 88.076 69.4827 84.1753C69.9411 86.3996 71.7228 88.0678 73.9019 88.3132C73.4195 95.3463 73.6408 102.412 74.5623 109.398Z" fill="#EAFFEA"/>
<path d="M119.338 147.035C114.336 148.49 109.121 148.99 103.947 148.511C96.2037 148.004 89.0682 143.984 84.4417 137.52C75.0444 124.105 72.8348 104.601 74.0285 88.3133C76.1877 88.5072 78.2276 87.2583 79.1081 85.2032C85.4213 87.9051 91.9821 89.9361 98.6899 91.2652C107.539 95.4603 115.297 101.785 121.319 109.714C133.358 126.688 119.338 147.035 119.338 147.035Z" fill="#EAFFEA"/>
<path d="M111.719 147.035C109.179 147.779 106.577 148.274 103.947 148.511C96.2037 148.004 89.0682 143.984 84.4417 137.52C75.0444 124.105 72.8348 104.601 74.0285 88.3131C75.1982 88.4402 76.3741 88.1421 77.3557 87.4697C81.8686 89.0731 86.4857 90.3414 91.1721 91.265C100.022 95.4602 107.779 101.785 113.802 109.714C125.739 126.688 111.719 147.035 111.719 147.035Z" fill="#EAFFEA"/>
<path d="M147.022 58.6363C147.022 58.6363 146.844 83.6483 127.516 90.2637C112.455 95.3767 93.9655 91.6342 79.2601 85.3087C80.1424 83.2288 79.6408 80.7963 78.0156 79.2731C82.4387 73.8498 86.3112 67.9676 89.5717 61.72C96.8609 53.8131 107.35 45.9063 117.357 44.1668C134.653 41.2413 147.022 58.6363 147.022 58.6363Z" fill="#EAFFEA"/>
<path d="M139.402 58.6361C139.402 58.6361 139.225 83.6481 119.897 90.2635C116.051 91.5351 112.066 92.2967 108.036 92.5301C98.1119 91.7705 88.3744 89.3311 79.2093 85.3085C80.0916 83.2286 79.59 80.7961 77.9648 79.273C82.4056 73.852 86.2952 67.9698 89.5717 61.7198C96.8609 53.813 107.35 45.9061 117.357 44.1666C130.437 46.196 139.402 58.6361 139.402 58.6361Z" fill="#EAFFEA"/>
<path d="M79.6402 83.0683C79.6096 85.7396 77.6581 87.9648 75.0981 88.2473C72.5381 88.5297 70.1793 86.7802 69.6081 84.1752C69.4175 82.292 70.2096 80.4464 71.686 79.3335C73.1623 78.2206 75.0986 78.0096 76.7655 78.78C78.4324 79.5504 79.5767 81.1851 79.7672 83.0683H79.6402Z" fill="#EAFFEA"/>
<path d="M128.742 91.3308C149.568 84.32 150 58.412 150 57.3314C150 56.7611 149.822 56.2062 149.492 55.75C148.883 54.8539 133.872 34.1643 113.046 41.2014C107.302 43.2118 101.927 46.2147 97.147 50.0834C99.2341 44.1704 100.334 37.931 100.398 31.6342C100.398 8.91518 76.8033 0.481217 75.8127 0.138587C75.2855 -0.0461956 74.7145 -0.0461956 74.1873 0.138587C73.1968 0.481217 49.6021 8.91518 49.6021 31.7659C49.6729 38.0622 50.7721 44.3004 52.853 50.2152C48.0658 46.2964 42.6727 43.2485 36.9031 41.2014C16.1023 34.1643 1.11751 54.8539 0.507958 55.75C0.178237 56.2062 0 56.7611 0 57.3314C0 58.412 0.431765 84.32 21.258 91.3308C27.0447 93.2216 33.101 94.0685 39.1636 93.8346C34.1281 97.3368 29.7047 101.704 26.0836 106.749C13.2069 125.198 27.5313 146.283 28.1663 147.232C28.4724 147.707 28.9317 148.053 29.4616 148.207C33.5325 149.417 37.7483 150.02 41.9827 149.999C60.0152 149.999 69.9204 138.798 75 121.008C80.2066 138.904 90.061 149.999 108.017 149.999C112.244 150.009 116.452 149.397 120.513 148.181C121.043 148.026 121.502 147.68 121.808 147.206C122.443 146.31 136.768 125.119 123.891 106.723C120.265 101.692 115.852 97.3266 110.836 93.8082C116.897 94.0449 122.953 93.2071 128.742 91.3308ZM75 5.48888C78.8605 7.07025 95.3183 14.8453 95.3183 31.6605C95.3183 46.868 87.0386 62.6553 77.8446 74.4101C77.3874 74.2256 77.5398 76.7822 77.5398 44.8386C77.5398 43.383 76.4027 42.203 75 42.203C73.5973 42.203 72.4602 43.383 72.4602 44.8386V72.3016C69.378 67.5245 65.9206 63.0198 62.1233 58.8337C57.5317 50.5468 54.976 41.2147 54.6817 31.6605C54.6817 14.898 71.1395 7.0966 75 5.48888ZM22.8327 86.3231C7.46698 81.0519 5.38436 62.4708 5.05418 58.1748C7.59397 54.8539 19.8866 41.0169 35.3031 46.2091C49.2719 50.9268 61.1581 63.9468 69.0823 76.7031C68.8283 77.0457 71.0125 77.5992 41.9065 67.8211C40.5933 67.4322 39.2187 68.1906 38.7951 69.5379C38.3714 70.8852 39.0503 72.339 40.3319 72.8288L65.5012 81.3154C60.1551 82.8848 54.9469 84.9215 49.9323 87.4037C40.9497 89.3465 31.6452 88.9754 22.8327 86.3231ZM63.063 134.634C53.5896 148.207 35.8618 144.491 31.8236 143.437C29.5886 139.773 20.6993 123.406 30.1981 109.859C38.7318 97.6826 54.4785 89.8021 68.5743 85.9541C68.8029 86.3231 69.9712 84.4255 52.0403 110.044C51.3689 111.22 51.6758 112.734 52.747 113.53C53.8181 114.326 55.2979 114.139 56.1548 113.101L71.7237 90.8564C71.5062 96.5869 71.7526 102.326 72.4602 108.014C71.509 117.56 68.2792 126.709 63.063 134.634ZM75 84.3727C73.5973 84.3727 72.4602 83.1927 72.4602 81.7371C72.4602 80.2815 73.5973 79.1015 75 79.1015C76.4027 79.1015 77.5398 80.2815 77.5398 81.7371C77.5398 83.1927 76.4027 84.3727 75 84.3727ZM119.802 109.859C129.301 123.406 120.411 139.773 118.176 143.437C114.138 144.491 96.4104 148.207 86.937 134.634C78.3017 122.299 76.0921 104.562 76.7779 89.3804C77.1842 89.3804 75.7111 87.351 93.7437 113.101C94.2329 113.958 95.1461 114.456 96.1038 114.387C97.0616 114.319 97.9002 113.695 98.2713 112.777C98.6424 111.858 98.4825 110.8 97.8581 110.044L82.3654 87.799C87.6149 89.8191 93.0181 91.3795 98.5185 92.4641C106.872 96.3776 114.178 102.349 119.802 109.859ZM82.6194 82.2379C82.6194 81.7898 80.7145 82.6069 109.643 72.8288C110.924 72.339 111.603 70.8852 111.18 69.5379C110.756 68.1906 109.381 67.4322 108.068 67.8211L82.8988 76.2023C86.3247 71.6669 89.3829 66.8448 92.042 61.7856C98.228 54.7314 105.978 49.3487 114.621 46.1037C129.859 40.8324 142.228 54.7485 144.87 58.0693C144.616 62.3917 142.584 81.0255 127.091 86.2177C113.249 91.0408 96.3342 87.7727 82.6194 82.2379Z" fill="#6AE2DB"/>
</svg>
