<svg width="150" height="150" viewBox="0 0 150 150" fill="none" xmlns="http://www.w3.org/2000/svg">
<path d="M113.835 43.7053C104.706 47.1773 96.5298 52.9034 90.0114 60.3887C94.8575 51.6252 97.5526 41.7595 97.8593 31.6606C97.8593 10.5757 75.0012 2.66882 75.0012 2.66882C75.0012 2.66882 52.1431 10.5757 52.1431 31.6606C52.4499 41.7595 55.145 51.6252 59.9911 60.3887C53.4613 52.9417 45.2857 47.2526 36.1678 43.8107C16.84 37.1953 2.54102 57.3051 2.54102 57.3051C2.54102 57.3051 2.7188 82.317 22.0466 88.9324C31.3904 91.7328 41.2534 92.1129 50.7716 90.0394C41.8826 94.1669 34.1104 100.503 28.1421 108.489C16.2051 125.541 30.2247 145.888 30.2247 145.888C30.2247 145.888 53.0828 153.426 65.1214 136.373C70.628 127.935 74.0233 118.207 75.0012 108.067C76.0079 118.143 79.402 127.805 84.881 136.189C96.818 153.241 119.778 145.703 119.778 145.703C119.778 145.703 133.797 125.357 121.86 108.304C115.905 100.337 108.162 94.0035 99.307 89.8549C108.8 91.9293 118.638 91.5491 127.956 88.7479C147.284 82.238 147.461 57.1206 147.461 57.1206C147.461 57.1206 133.162 37.1953 113.835 43.7053Z" fill="#EAFFEA"/>
<path d="M97.8588 31.6603C97.8588 48.1856 88.614 65.3961 78.404 77.8362C76.7703 76.3024 74.37 76.0363 72.4609 77.1773C68.8728 71.15 64.6938 65.5238 59.9905 60.3885C55.1445 51.6249 52.4493 41.7592 52.1426 31.6603C52.1426 16.0311 64.6891 7.67624 71.191 4.35537C72.4272 3.71442 73.6994 3.15114 75.0007 2.66858C75.0007 2.66858 97.8588 10.5754 97.8588 31.6603Z" fill="#EAFFEA"/>
<path d="M90.2394 31.6603C90.2394 47.6848 81.7565 63.7884 71.9783 76.4657C68.5077 70.7061 64.4919 65.3204 59.9905 60.3885C60.4223 60.3885 52.1426 47.7112 52.1426 31.6603C52.1426 16.0311 64.6891 7.67622 71.191 4.35535C77.6929 7.67622 90.2394 16.0311 90.2394 31.6603Z" fill="#EAFFEA"/>
<path d="M69.9217 82.8439C63.3007 84.4939 56.865 86.8614 50.7209 89.9073C41.1858 91.9662 31.3118 91.5954 21.945 88.8267C2.61724 82.3167 2.43945 57.1994 2.43945 57.1994C2.43945 57.1994 16.8401 37.1951 36.1679 43.705C51.4066 48.8181 64.1056 63.1558 72.4615 77.1773C70.5108 78.2856 69.4817 80.5817 69.9217 82.8439Z" fill="#EAFFEA"/>
<path d="M75.0017 108.067C73.9951 118.143 70.6009 127.804 65.1219 136.189C53.1849 153.241 30.2252 145.703 30.2252 145.703C30.2252 145.703 16.2056 125.356 28.1426 108.304C37.4382 95.0204 54.6834 86.7446 69.9221 82.8439C70.3806 85.0682 72.1623 86.7364 74.3414 86.9818C73.859 94.0149 74.0803 101.081 75.0017 108.067Z" fill="#EAFFEA"/>
<path d="M119.778 145.703C114.776 147.158 109.561 147.658 104.387 147.179C96.6431 146.673 89.5077 142.652 84.8811 136.189C75.4839 122.773 73.2743 103.27 74.468 86.9818C76.6271 87.1758 78.6671 85.9268 79.5476 83.8718C85.8608 86.5737 92.4215 88.6047 99.1293 89.9337C107.979 94.1289 115.737 100.454 121.759 108.383C133.797 125.356 119.778 145.703 119.778 145.703Z" fill="#EAFFEA"/>
<path d="M112.158 145.703C109.618 146.448 107.016 146.942 104.387 147.179C96.6431 146.673 89.5077 142.652 84.8811 136.189C75.4839 122.773 73.2743 103.27 74.468 86.9817C75.6377 87.1087 76.8136 86.8107 77.7951 86.1383C82.3081 87.7417 86.9252 89.01 91.6116 89.9336C100.461 94.1288 108.219 100.453 114.241 108.383C126.178 125.356 112.158 145.703 112.158 145.703Z" fill="#EAFFEA"/>
<path d="M147.461 57.3049C147.461 57.3049 147.283 82.3168 127.956 88.9322C112.895 94.0453 94.405 90.3027 79.6996 83.9773C80.5818 81.8974 80.0802 79.4649 78.4551 77.9417C82.8782 72.5183 86.7507 66.6362 90.0111 60.3885C97.3003 52.4817 107.79 44.5749 117.796 42.8354C135.092 39.9098 147.461 57.3049 147.461 57.3049Z" fill="#EAFFEA"/>
<path d="M139.842 57.3047C139.842 57.3047 139.664 82.3167 120.336 88.9321C116.491 90.2037 112.505 90.9653 108.475 91.1987C98.5513 90.4391 88.8138 87.9997 79.6488 83.9771C80.531 81.8972 80.0295 79.4647 78.4043 77.9416C82.8451 72.5206 86.7346 66.6384 90.0111 60.3884C97.3003 52.4815 107.79 44.5747 117.796 42.8352C130.876 44.8646 139.842 57.3047 139.842 57.3047Z" fill="#EAFFEA"/>
<path d="M80.0797 81.7369C80.0491 84.4082 78.0975 86.6334 75.5376 86.9158C72.9776 87.1983 70.6188 85.4487 70.0475 82.8438C69.857 80.9606 70.6491 79.1149 72.1254 78.0021C73.6018 76.8892 75.5381 76.6782 77.205 77.4486C78.8719 78.219 80.0161 79.8536 80.2067 81.7369H80.0797Z" fill="#EAFFEA"/>
<path d="M128.742 91.3308C149.568 84.32 150 58.412 150 57.3314C150 56.7611 149.822 56.2062 149.492 55.75C148.883 54.8539 133.872 34.1643 113.046 41.2014C107.302 43.2118 101.927 46.2147 97.147 50.0834C99.2341 44.1704 100.334 37.931 100.398 31.6342C100.398 8.91518 76.8033 0.481217 75.8127 0.138587C75.2855 -0.0461956 74.7145 -0.0461956 74.1873 0.138587C73.1968 0.481217 49.6021 8.91518 49.6021 31.7659C49.6729 38.0622 50.7721 44.3004 52.853 50.2152C48.0658 46.2964 42.6727 43.2485 36.9031 41.2014C16.1023 34.1643 1.11751 54.8539 0.507958 55.75C0.178237 56.2062 0 56.7611 0 57.3314C0 58.412 0.431765 84.32 21.258 91.3308C27.0447 93.2216 33.101 94.0685 39.1636 93.8346C34.1281 97.3368 29.7047 101.704 26.0836 106.749C13.2069 125.198 27.5313 146.283 28.1663 147.232C28.4724 147.707 28.9317 148.053 29.4616 148.207C33.5325 149.417 37.7483 150.02 41.9827 149.999C60.0152 149.999 69.9204 138.798 75 121.008C80.2066 138.904 90.061 149.999 108.017 149.999C112.244 150.009 116.452 149.397 120.513 148.181C121.043 148.026 121.502 147.68 121.808 147.206C122.443 146.31 136.768 125.119 123.891 106.723C120.265 101.692 115.852 97.3266 110.836 93.8082C116.897 94.0449 122.953 93.2071 128.742 91.3308ZM75 5.48888C78.8605 7.07025 95.3183 14.8453 95.3183 31.6605C95.3183 46.868 87.0386 62.6553 77.8446 74.4101C77.3874 74.2256 77.5398 76.7822 77.5398 44.8386C77.5398 43.383 76.4027 42.203 75 42.203C73.5973 42.203 72.4602 43.383 72.4602 44.8386V72.3016C69.378 67.5245 65.9206 63.0198 62.1233 58.8337C57.5317 50.5468 54.976 41.2147 54.6817 31.6605C54.6817 14.898 71.1395 7.0966 75 5.48888ZM22.8327 86.3231C7.46698 81.0519 5.38436 62.4708 5.05418 58.1748C7.59397 54.8539 19.8866 41.0169 35.3031 46.2091C49.2719 50.9268 61.1581 63.9468 69.0823 76.7031C68.8283 77.0457 71.0125 77.5992 41.9065 67.8211C40.5933 67.4322 39.2187 68.1906 38.7951 69.5379C38.3714 70.8852 39.0503 72.339 40.3319 72.8288L65.5012 81.3154C60.1551 82.8848 54.9469 84.9215 49.9323 87.4037C40.9497 89.3465 31.6452 88.9754 22.8327 86.3231ZM63.063 134.634C53.5896 148.207 35.8618 144.491 31.8236 143.437C29.5886 139.773 20.6993 123.406 30.1981 109.859C38.7318 97.6826 54.4785 89.8021 68.5743 85.9541C68.8029 86.3231 69.9712 84.4255 52.0403 110.044C51.3689 111.22 51.6758 112.734 52.747 113.53C53.8181 114.326 55.2979 114.139 56.1548 113.101L71.7237 90.8564C71.5062 96.5869 71.7526 102.326 72.4602 108.014C71.509 117.56 68.2792 126.709 63.063 134.634ZM75 84.3727C73.5973 84.3727 72.4602 83.1927 72.4602 81.7371C72.4602 80.2815 73.5973 79.1015 75 79.1015C76.4027 79.1015 77.5398 80.2815 77.5398 81.7371C77.5398 83.1927 76.4027 84.3727 75 84.3727ZM119.802 109.859C129.301 123.406 120.411 139.773 118.176 143.437C114.138 144.491 96.4104 148.207 86.937 134.634C78.3017 122.299 76.0921 104.562 76.7779 89.3804C77.1842 89.3804 75.7111 87.351 93.7437 113.101C94.2329 113.958 95.1461 114.456 96.1038 114.387C97.0616 114.319 97.9002 113.695 98.2713 112.777C98.6424 111.858 98.4825 110.8 97.8581 110.044L82.3654 87.799C87.6149 89.8191 93.0181 91.3795 98.5185 92.4641C106.872 96.3776 114.178 102.349 119.802 109.859ZM82.6194 82.2379C82.6194 81.7898 80.7145 82.6069 109.643 72.8288C110.924 72.339 111.603 70.8852 111.18 69.5379C110.756 68.1906 109.381 67.4322 108.068 67.8211L82.8988 76.2023C86.3247 71.6669 89.3829 66.8448 92.042 61.7856C98.228 54.7314 105.978 49.3487 114.621 46.1037C129.859 40.8324 142.228 54.7485 144.87 58.0693C144.616 62.3917 142.584 81.0255 127.091 86.2177C113.249 91.0408 96.3342 87.7727 82.6194 82.2379Z" fill="#CF9550"/>
</svg>
