<svg width="150" height="150" viewBox="0 0 150 150" fill="none" xmlns="http://www.w3.org/2000/svg">
<path d="M112.395 44.0367C103.267 47.5088 95.0903 53.2348 88.5719 60.7201C93.418 51.9566 96.1131 42.0909 96.4199 31.992C96.4199 10.9071 73.5618 3.00024 73.5618 3.00024C73.5618 3.00024 50.7037 10.9071 50.7037 31.992C51.0104 42.0909 53.7055 51.9566 58.5516 60.7201C52.0218 53.2731 43.8463 47.584 34.7284 44.1421C15.4006 37.5268 1.10156 57.6365 1.10156 57.6365C1.10156 57.6365 1.27935 82.6484 20.6072 89.2638C29.951 92.0642 39.8139 92.4443 49.3322 90.3708C40.4432 94.4983 32.671 100.835 26.7026 108.82C14.7656 125.872 28.7853 146.219 28.7853 146.219C28.7853 146.219 51.6434 153.757 63.682 136.705C69.1885 128.267 72.5839 118.539 73.5618 108.398C74.5684 118.475 77.9626 128.136 83.4416 136.52C95.3786 153.573 118.338 146.035 118.338 146.035C118.338 146.035 132.358 125.688 120.421 108.636C114.466 100.669 106.723 94.335 97.8676 90.1863C107.36 92.2607 117.199 91.8806 126.516 89.0793C145.844 82.5694 146.022 57.452 146.022 57.452C146.022 57.452 131.723 37.5268 112.395 44.0367Z" fill="#EAFFEA"/>
<path d="M96.4193 31.9917C96.4193 48.517 87.1745 65.7276 76.9646 78.1677C75.3308 76.6338 72.9306 76.3677 71.0214 77.5088C67.4333 71.4815 63.2543 65.8553 58.5511 60.7199C53.705 51.9564 51.0099 42.0907 50.7031 31.9917C50.7031 16.3626 63.2497 8.00766 69.7516 4.68679C70.9877 4.04584 72.2599 3.48256 73.5612 3C73.5612 3 96.4193 10.9068 96.4193 31.9917Z" fill="#EAFFEA"/>
<path d="M88.8 31.9917C88.8 48.0162 80.3171 64.1198 70.5389 76.7971C67.0683 71.0376 63.0524 65.6518 58.5511 60.7199C58.9828 60.7199 50.7031 48.0426 50.7031 31.9917C50.7031 16.3625 63.2497 8.00764 69.7516 4.68677C76.2534 8.00764 88.8 16.3625 88.8 31.9917Z" fill="#EAFFEA"/>
<path d="M68.4822 83.1753C61.8612 84.8253 55.4256 87.1928 49.2814 90.2387C39.7463 92.2976 29.8723 91.9268 20.5056 89.1581C1.17778 82.6482 1 57.5308 1 57.5308C1 57.5308 15.4006 37.5265 34.7284 44.0364C49.9672 49.1495 62.6661 63.4873 71.022 77.5087C69.0714 78.617 68.0422 80.9131 68.4822 83.1753Z" fill="#EAFFEA"/>
<path d="M73.5623 108.398C72.5556 118.474 69.1615 128.136 63.6825 136.52C51.7455 153.572 28.7858 146.035 28.7858 146.035C28.7858 146.035 14.7661 125.688 26.7031 108.635C35.9988 95.3518 53.2439 87.076 68.4827 83.1753C68.9411 85.3996 70.7228 87.0678 72.9019 87.3132C72.4195 94.3463 72.6408 101.412 73.5623 108.398Z" fill="#EAFFEA"/>
<path d="M118.338 146.035C113.336 147.49 108.121 147.99 102.947 147.511C95.2037 147.004 88.0682 142.984 83.4417 136.52C74.0444 123.105 71.8348 103.601 73.0285 87.3133C75.1877 87.5072 77.2276 86.2583 78.1081 84.2032C84.4213 86.9051 90.9821 88.9361 97.6899 90.2652C106.539 94.4603 114.297 100.785 120.319 108.714C132.358 125.688 118.338 146.035 118.338 146.035Z" fill="#EAFFEA"/>
<path d="M110.719 146.035C108.179 146.779 105.577 147.274 102.947 147.511C95.2037 147.004 88.0682 142.984 83.4417 136.52C74.0444 123.105 71.8348 103.601 73.0285 87.3131C74.1982 87.4402 75.3741 87.1421 76.3557 86.4697C80.8686 88.0731 85.4857 89.3414 90.1721 90.265C99.0215 94.4602 106.779 100.785 112.802 108.714C124.739 125.688 110.719 146.035 110.719 146.035Z" fill="#EAFFEA"/>
<path d="M146.022 57.6363C146.022 57.6363 145.844 82.6483 126.516 89.2637C111.455 94.3767 92.9655 90.6342 78.2601 84.3087C79.1424 82.2288 78.6408 79.7963 77.0156 78.2731C81.4387 72.8498 85.3112 66.9676 88.5717 60.72C95.8609 52.8131 106.35 44.9063 116.357 43.1668C133.653 40.2413 146.022 57.6363 146.022 57.6363Z" fill="#EAFFEA"/>
<path d="M138.402 57.6361C138.402 57.6361 138.225 82.6481 118.897 89.2635C115.051 90.5351 111.066 91.2967 107.036 91.5301C97.1119 90.7705 87.3744 88.3311 78.2093 84.3085C79.0916 82.2286 78.59 79.7961 76.9648 78.273C81.4056 72.852 85.2952 66.9698 88.5717 60.7198C95.8609 52.813 106.35 44.9061 116.357 43.1666C129.437 45.196 138.402 57.6361 138.402 57.6361Z" fill="#EAFFEA"/>
<path d="M78.6402 82.0683C78.6096 84.7396 76.6581 86.9648 74.0981 87.2473C71.5381 87.5297 69.1793 85.7802 68.6081 83.1752C68.4175 81.292 69.2096 79.4464 70.686 78.3335C72.1623 77.2206 74.0986 77.0096 75.7655 77.78C77.4324 78.5504 78.5767 80.1851 78.7672 82.0683H78.6402Z" fill="#EAFFEA"/>
<path d="M128.742 91.3308C149.568 84.32 150 58.412 150 57.3314C150 56.7611 149.822 56.2062 149.492 55.75C148.883 54.8539 133.872 34.1643 113.046 41.2014C107.302 43.2118 101.927 46.2147 97.147 50.0834C99.2341 44.1704 100.334 37.931 100.398 31.6342C100.398 8.91518 76.8033 0.481217 75.8127 0.138587C75.2855 -0.0461956 74.7145 -0.0461956 74.1873 0.138587C73.1968 0.481217 49.6021 8.91518 49.6021 31.7659C49.6729 38.0622 50.7721 44.3004 52.853 50.2152C48.0658 46.2964 42.6727 43.2485 36.9031 41.2014C16.1023 34.1643 1.11751 54.8539 0.507958 55.75C0.178237 56.2062 0 56.7611 0 57.3314C0 58.412 0.431765 84.32 21.258 91.3308C27.0447 93.2216 33.101 94.0685 39.1636 93.8346C34.1281 97.3368 29.7047 101.704 26.0836 106.749C13.2069 125.198 27.5313 146.283 28.1663 147.232C28.4724 147.707 28.9317 148.053 29.4616 148.207C33.5325 149.417 37.7483 150.02 41.9827 149.999C60.0152 149.999 69.9204 138.798 75 121.008C80.2066 138.904 90.061 149.999 108.017 149.999C112.244 150.009 116.452 149.397 120.513 148.181C121.043 148.026 121.502 147.68 121.808 147.206C122.443 146.31 136.768 125.119 123.891 106.723C120.265 101.692 115.852 97.3266 110.836 93.8082C116.897 94.0449 122.953 93.2071 128.742 91.3308ZM75 5.48888C78.8605 7.07025 95.3183 14.8453 95.3183 31.6605C95.3183 46.868 87.0386 62.6553 77.8446 74.4101C77.3874 74.2256 77.5398 76.7822 77.5398 44.8386C77.5398 43.383 76.4027 42.203 75 42.203C73.5973 42.203 72.4602 43.383 72.4602 44.8386V72.3016C69.378 67.5245 65.9206 63.0198 62.1233 58.8337C57.5317 50.5468 54.976 41.2147 54.6817 31.6605C54.6817 14.898 71.1395 7.0966 75 5.48888ZM22.8327 86.3231C7.46698 81.0519 5.38436 62.4708 5.05418 58.1748C7.59397 54.8539 19.8866 41.0169 35.3031 46.2091C49.2719 50.9268 61.1581 63.9468 69.0823 76.7031C68.8283 77.0457 71.0125 77.5992 41.9065 67.8211C40.5933 67.4322 39.2187 68.1906 38.7951 69.5379C38.3714 70.8852 39.0503 72.339 40.3319 72.8288L65.5012 81.3154C60.1551 82.8848 54.9469 84.9215 49.9323 87.4037C40.9497 89.3465 31.6452 88.9754 22.8327 86.3231ZM63.063 134.634C53.5896 148.207 35.8618 144.491 31.8236 143.437C29.5886 139.773 20.6993 123.406 30.1981 109.859C38.7318 97.6826 54.4785 89.8021 68.5743 85.9541C68.8029 86.3231 69.9712 84.4255 52.0403 110.044C51.3689 111.22 51.6758 112.734 52.747 113.53C53.8181 114.326 55.2979 114.139 56.1548 113.101L71.7237 90.8564C71.5062 96.5869 71.7526 102.326 72.4602 108.014C71.509 117.56 68.2792 126.709 63.063 134.634ZM75 84.3727C73.5973 84.3727 72.4602 83.1927 72.4602 81.7371C72.4602 80.2815 73.5973 79.1015 75 79.1015C76.4027 79.1015 77.5398 80.2815 77.5398 81.7371C77.5398 83.1927 76.4027 84.3727 75 84.3727ZM119.802 109.859C129.301 123.406 120.411 139.773 118.176 143.437C114.138 144.491 96.4104 148.207 86.937 134.634C78.3017 122.299 76.0921 104.562 76.7779 89.3804C77.1842 89.3804 75.7111 87.351 93.7437 113.101C94.2329 113.958 95.1461 114.456 96.1038 114.387C97.0616 114.319 97.9002 113.695 98.2713 112.777C98.6424 111.858 98.4825 110.8 97.8581 110.044L82.3654 87.799C87.6149 89.8191 93.0181 91.3795 98.5185 92.4641C106.872 96.3776 114.178 102.349 119.802 109.859ZM82.6194 82.2379C82.6194 81.7898 80.7145 82.6069 109.643 72.8288C110.924 72.339 111.603 70.8852 111.18 69.5379C110.756 68.1906 109.381 67.4322 108.068 67.8211L82.8988 76.2023C86.3247 71.6669 89.3829 66.8448 92.042 61.7856C98.228 54.7314 105.978 49.3487 114.621 46.1037C129.859 40.8324 142.228 54.7485 144.87 58.0693C144.616 62.3917 142.584 81.0255 127.091 86.2177C113.249 91.0408 96.3342 87.7727 82.6194 82.2379Z" fill="#E43C3C"/>
</svg>
