<svg width="300" height="300" viewBox="0 0 300 300" fill="none" xmlns="http://www.w3.org/2000/svg">
<g clip-path="url(#clip0_343_16308)">
<path d="M259.083 4.59C256.125 1.62975 252.195 0 248.017 0L131.929 0.01425C128.347 0.01425 124.861 1.2405 122.119 3.4635C119.122 5.8575 117.119 9.2775 116.478 13.095L93.3914 152.291C92.7891 155.993 93.5421 159.757 95.4269 162.904C85.6761 172.608 76.3131 182.729 68.7426 192.992L65.6496 179.619C64.9244 176.481 62.5191 174.101 59.3729 173.409C56.2244 172.717 53.0451 173.867 51.0681 176.411L38.0789 193.13C36.1019 195.673 35.7734 199.04 37.2216 201.917C38.6346 204.724 41.4614 206.468 44.5986 206.468L60.1791 206.119C49.6664 224.864 47.0084 243.694 60.5931 260.963C73.2704 277.078 95.0834 280.735 119.574 271.103L114.697 283.651C113.531 286.654 114.179 289.974 116.39 292.318C117.972 293.995 120.097 294.919 122.375 294.919C123.243 294.919 124.107 294.781 124.943 294.512L145.091 288.006C148.157 287.016 150.324 284.417 150.746 281.224C151.169 278.029 149.752 274.956 147.049 273.204L134.373 264.981C158.485 256.179 178.996 256.541 191.635 266.257C200.498 273.068 204.635 284.059 202.7 295.655C202.534 296.637 202.762 297.625 203.34 298.439C203.918 299.25 204.777 299.788 205.781 299.957C205.984 299.986 206.185 300.001 206.373 300.001C208.197 300.001 209.746 298.691 210.057 296.887V296.883C212.464 282.537 207.279 268.874 196.186 260.336C187.337 253.541 167.888 244.945 132.835 257.577L137.842 244.69C139.009 241.688 138.361 238.368 136.15 236.024C133.937 233.681 130.659 232.84 127.596 233.83L107.449 240.338C104.384 241.328 102.217 243.926 101.794 247.118C101.371 250.312 102.787 253.386 105.49 255.139L118.41 263.52C107.545 267.955 81.6344 275.658 66.4589 256.34C56.7839 244.046 56.2409 229.907 65.5281 212.198L68.4539 224.849C69.1791 227.988 71.5844 230.368 74.7299 231.06C75.3254 231.19 75.9344 231.258 76.5381 231.258C79.0881 231.258 81.4559 230.092 83.0354 228.059L96.0246 211.338C98.0016 208.796 98.3294 205.427 96.8804 202.55C95.4681 199.744 92.6414 198.001 89.5041 198.001L74.2604 198.342C80.8761 189.221 89.6654 179.231 100.694 168.2C103.122 169.692 105.901 170.505 108.802 170.505H108.807C109.67 170.505 110.544 170.433 111.408 170.294L250.567 147.198C254.388 146.576 257.814 144.582 260.21 141.587C262.444 138.826 263.674 135.336 263.674 131.758V15.6555C263.673 11.4788 262.042 7.548 259.083 4.59ZM142.989 279.464C143.272 279.648 143.393 279.91 143.348 280.244C143.304 280.58 143.119 280.803 142.798 280.906L122.653 287.411C122.326 287.515 122.046 287.442 121.815 287.196C121.584 286.952 121.528 286.669 121.651 286.354L128.086 269.796L142.989 279.464ZM109.551 248.88C109.267 248.695 109.145 248.431 109.19 248.097C109.234 247.764 109.42 247.54 109.741 247.437L129.887 240.929C129.985 240.899 130.077 240.883 130.163 240.883C130.435 240.883 130.63 241.046 130.723 241.145C130.954 241.391 131.009 241.673 130.887 241.987L124.453 258.546L109.551 248.88ZM44.6279 199.007C44.1981 198.985 43.9896 198.768 43.8869 198.565C43.7346 198.263 43.7631 197.974 43.9701 197.708L56.9594 180.989C57.1259 180.775 57.3209 180.675 57.5729 180.675C57.6546 180.675 57.7236 180.686 57.7694 180.697C58.0986 180.77 58.3049 180.972 58.3806 181.3L62.3841 198.607L44.6279 199.007ZM89.4486 205.462C89.8266 205.466 90.0636 205.603 90.2151 205.906C90.3674 206.207 90.3389 206.495 90.1319 206.762L77.1419 223.48C76.8809 223.815 76.5629 223.823 76.3326 223.773C76.0034 223.7 75.7979 223.498 75.7214 223.169L71.7179 205.862L89.4486 205.462ZM131.93 7.47525L248.017 7.461C248.882 7.461 249.727 7.5945 250.537 7.86L190.873 67.5247L130.89 7.545C131.239 7.4985 131.586 7.47525 131.93 7.47525ZM100.754 153.501L123.837 14.3243C123.982 13.4558 124.26 12.633 124.663 11.8673L185.596 72.801L101.042 157.355C100.641 156.122 100.542 154.807 100.755 153.497L100.754 153.501ZM249.36 139.835L110.197 162.931C108.877 163.147 107.556 163.045 106.313 162.635L190.872 78.0772L251.816 139.022C251.05 139.421 250.227 139.693 249.36 139.835ZM256.211 131.757C256.211 132.104 256.189 132.451 256.143 132.798L196.147 72.8018L255.812 13.137C256.077 13.9485 256.211 14.7915 256.211 15.6562V131.757Z" fill="#F0E25E"/>
<g clip-path="url(#clip1_343_16308)">
<path d="M64.0506 202.235L59.0144 180.461C58.1534 176.738 53.3579 175.683 51.0134 178.7L38.0234 195.419C35.6796 198.437 37.8876 202.823 41.7074 202.737L64.0506 202.235Z" fill="#F9D82F"/>
<path d="M64.0505 202.234L86.3938 201.733C90.2135 201.647 92.4215 206.033 90.0778 209.05L77.0878 225.77C74.744 228.787 69.9478 227.732 69.0868 224.009L64.0505 202.234Z" fill="#F9D82F"/>
<path d="M123.269 264.171L115.174 285.003C113.791 288.564 117.16 292.136 120.796 290.963L140.944 284.456C144.58 283.283 145.225 278.414 142.019 276.335L123.269 264.171Z" fill="#F9D82F"/>
<path d="M123.269 264.171L104.52 252.008C101.314 249.929 101.959 245.061 105.595 243.887L125.743 237.38C129.379 236.207 132.748 239.778 131.365 243.34L123.269 264.171Z" fill="#F9D82F"/>
<path d="M253.445 7.227L187.871 72.8003C143.98 59.1428 121.447 6.3765 121.447 6.3765C123.509 4.70475 126.115 3.74325 128.929 3.74325L245.017 3.729C248.305 3.7305 251.299 5.082 253.445 7.227Z" fill="#FFEB3A"/>
<path d="M187.871 72.8009C166.368 123.602 97.402 163.27 97.402 163.27C94.825 160.693 93.4181 156.917 94.0728 152.891L117.157 13.7054C117.659 10.7242 119.233 8.14718 121.448 6.37793L187.871 72.8009Z" fill="#F9D82F"/>
<path d="M254.309 139.238C254.309 139.238 201.823 119.787 187.872 72.8008L253.446 7.22754C255.605 9.38679 256.943 12.368 256.943 15.656V131.758C256.942 134.572 255.967 137.191 254.309 139.238Z" fill="#F9D82F"/>
<path d="M246.968 143.515L107.796 166.612C103.77 167.267 99.9946 165.86 97.4033 163.269L187.871 72.8008L254.309 139.238C252.526 141.467 249.962 143.027 246.968 143.515Z" fill="#FFEB3A"/>
</g>
</g>
<defs>
<clipPath id="clip0_343_16308">
<rect width="300" height="300" fill="white"/>
</clipPath>
<clipPath id="clip1_343_16308">
<rect width="300" height="300" fill="white" transform="translate(-3)"/>
</clipPath>
</defs>
</svg>
