<svg width="196" height="196" viewBox="0 0 196 196" fill="none" xmlns="http://www.w3.org/2000/svg">
<path fill-rule="evenodd" clip-rule="evenodd" d="M163.344 76.2597L83.779 30.3227C81.5477 29.0345 78.6641 29.8071 77.3758 32.0385L72.688 40.1579C71.3997 42.3892 72.1712 45.2719 74.4038 46.5611L153.969 92.4978C156.202 93.7867 159.083 93.015 160.372 90.7821L165.06 82.6627C166.349 80.4301 165.576 77.548 163.344 76.2597Z" fill="#EAFFEA"/>
<path fill-rule="evenodd" clip-rule="evenodd" d="M153.97 92.4973L74.4047 46.5605C67.3246 67.6901 76.222 90.9116 95.4369 102.005C114.652 113.099 139.211 109.194 153.97 92.4973ZM83.7797 30.3222C98.2393 13.9645 122.673 9.47552 142.313 20.8145C161.952 32.1535 170.282 55.558 163.345 76.2593L83.7797 30.3222Z" fill="#EAFFEA"/>
<path fill-rule="evenodd" clip-rule="evenodd" d="M100.693 104.621C98.911 103.868 97.1558 102.997 95.4372 102.005C93.7187 101.013 92.0868 99.9282 90.544 98.7612L87.0074 104.887C88.5722 106.035 90.211 107.106 91.9215 108.094C93.632 109.082 95.3799 109.965 97.156 110.746L100.693 104.621Z" fill="#EAFFEA"/>
<path fill-rule="evenodd" clip-rule="evenodd" d="M163.346 76.2591L155.495 71.7582C157.726 73.0465 158.5 75.9288 157.211 78.1614L152.523 86.2807C151.319 88.3661 148.726 89.1769 146.57 88.2243L153.971 92.4973C156.203 93.7861 159.085 93.0144 160.374 90.7815L165.061 82.6622C166.35 80.4295 165.581 77.5405 163.346 76.2591Z" fill="#EAFFEA"/>
<path fill-rule="evenodd" clip-rule="evenodd" d="M101.57 103.489C99.7884 102.737 98.0332 101.866 96.3146 100.874C94.5961 99.8816 92.9641 98.797 91.4214 97.6299L42.138 182.991C40.5266 185.782 41.4919 189.384 44.2831 190.995C47.074 192.607 50.6758 191.642 52.2871 188.851L101.57 103.489Z" fill="white"/>
<path fill-rule="evenodd" clip-rule="evenodd" d="M154.846 91.3663L147.447 87.0944C133.83 102.499 111.37 107.181 92.7116 98.5687C93.868 99.3854 95.0683 100.156 96.313 100.874C115.528 111.968 140.087 108.063 154.846 91.3663ZM156.822 70.8561L164.221 75.1282C171.811 52.4778 160.993 27.7118 139.392 17.7142C156.425 29.7124 163.318 51.4697 156.822 70.8561Z" fill="black" fill-opacity="0.25"/>
<path d="M135.7 27.1449L131.172 28.3581L129.959 23.8303L134.487 22.6171L135.7 27.1449ZM125.431 25.0434L120.904 26.2567L119.69 21.7289L124.218 20.5157L125.431 25.0434Z" fill="white"/>
<path d="M165.863 43.0765C161.884 32.3924 154.246 23.3633 144.356 17.6532C134.466 11.943 122.828 9.84292 111.585 11.7395C101.037 13.5184 91.3039 18.7165 84.0025 26.432C81.0383 25.6966 77.8196 26.9609 76.218 29.7349L71.5302 37.8543C69.9286 40.6284 70.4431 44.048 72.5623 46.2473C69.6562 56.0171 69.8775 66.6375 73.222 76.3388L77.6536 74.811C74.781 66.4786 74.4528 57.3994 76.6735 48.9426L151.102 91.9136C136.996 105.913 114.911 108.907 97.4802 98.844C89.5033 94.2388 83.2431 87.4039 79.3756 79.0786L75.1246 81.0533C78.2357 87.7511 82.7528 93.5697 88.3759 98.2068L40.1018 181.819C39.0098 183.711 38.721 185.921 39.2897 188.042C39.858 190.163 41.2132 191.933 43.1047 193.025C44.9966 194.117 47.2067 194.406 49.3278 193.838C51.4487 193.27 53.2183 191.914 54.3108 190.022L60.3861 179.5L56.3265 177.156L50.2512 187.679C49.785 188.487 49.0262 189.066 48.1149 189.31C47.2036 189.554 46.2566 189.432 45.4493 188.966C43.7702 187.996 43.1927 185.842 44.1622 184.163L92.1564 101.035C93.1246 101.689 94.1168 102.314 95.1369 102.904C96.1554 103.492 97.193 104.039 98.2462 104.55L58.6699 173.096L62.7296 175.44L102.588 106.404C110.632 109.393 119.383 110.255 127.908 108.817C129.442 108.558 130.958 108.227 132.453 107.827C141.236 105.473 149.249 100.719 155.488 94.1265C156.63 94.4106 157.832 94.4062 159.003 94.0923C160.821 93.6053 162.338 92.4437 163.274 90.8218L167.962 82.7022C169.563 79.9283 169.049 76.5086 166.93 74.3093C169.961 64.129 169.597 53.1032 165.863 43.0765ZM142.012 21.7126C159.443 31.7761 167.892 52.3995 162.822 71.6155L88.3906 28.6429C102.497 14.6436 124.582 11.6495 142.012 21.7126ZM163.903 80.3587L159.215 88.4782C158.904 89.0158 158.398 89.4015 157.79 89.5644C157.182 89.7275 156.551 89.6464 156.013 89.3359L76.4483 43.3992C75.3289 42.7531 74.944 41.3169 75.5905 40.1977L80.2782 32.0783C80.6013 31.5188 81.1217 31.1428 81.7016 30.9874C82.2814 30.8321 82.9201 30.8974 83.4797 31.2205L163.045 77.1571C164.164 77.8033 164.549 79.2399 163.903 80.3587Z" fill="#FFF500"/>
</svg>
