<svg width="196" height="196" viewBox="0 0 196 196" fill="none" xmlns="http://www.w3.org/2000/svg">
<path fill-rule="evenodd" clip-rule="evenodd" d="M165.344 77.2597L85.779 31.3227C83.5477 30.0345 80.6641 30.8071 79.3758 33.0385L74.688 41.1579C73.3997 43.3892 74.1712 46.2719 76.4038 47.5611L155.969 93.4978C158.202 94.7867 161.083 94.015 162.372 91.7821L167.06 83.6627C168.349 81.4301 167.576 78.548 165.344 77.2597Z" fill="#EAFFEA"/>
<path fill-rule="evenodd" clip-rule="evenodd" d="M155.97 93.4973L76.4047 47.5605C69.3246 68.6901 78.222 91.9116 97.4369 103.005C116.652 114.099 141.211 110.194 155.97 93.4973ZM85.7797 31.3222C100.239 14.9645 124.673 10.4755 144.313 21.8145C163.952 33.1535 172.282 56.558 165.345 77.2593L85.7797 31.3222Z" fill="#EAFFEA"/>
<path fill-rule="evenodd" clip-rule="evenodd" d="M102.693 105.621C100.911 104.868 99.1558 103.997 97.4372 103.005C95.7187 102.013 94.0868 100.928 92.544 99.7612L89.0074 105.887C90.5722 107.035 92.211 108.106 93.9215 109.094C95.632 110.082 97.3799 110.965 99.156 111.746L102.693 105.621Z" fill="#EAFFEA"/>
<path fill-rule="evenodd" clip-rule="evenodd" d="M165.346 77.2591L157.495 72.7582C159.726 74.0465 160.5 76.9288 159.211 79.1614L154.523 87.2807C153.319 89.3661 150.726 90.1769 148.57 89.2243L155.971 93.4973C158.203 94.7861 161.085 94.0144 162.374 91.7815L167.061 83.6622C168.35 81.4295 167.581 78.5405 165.346 77.2591Z" fill="#EAFFEA"/>
<path fill-rule="evenodd" clip-rule="evenodd" d="M101.57 103.489C99.7884 102.737 98.0332 101.866 96.3146 100.874C94.5961 99.8816 92.9641 98.797 91.4214 97.6299L42.138 182.991C40.5266 185.782 41.4919 189.384 44.2831 190.995C47.074 192.607 50.6758 191.642 52.2871 188.851L101.57 103.489Z" fill="white"/>
<path fill-rule="evenodd" clip-rule="evenodd" d="M154.846 91.3663L147.447 87.0944C133.83 102.499 111.37 107.181 92.7116 98.5687C93.868 99.3854 95.0683 100.156 96.313 100.874C115.528 111.968 140.087 108.063 154.846 91.3663ZM156.822 70.8561L164.221 75.1282C171.811 52.4778 160.993 27.7118 139.392 17.7142C156.425 29.7124 163.318 51.4697 156.822 70.8561Z" fill="black" fill-opacity="0.25"/>
<path d="M135.7 27.1449L131.172 28.3581L129.959 23.8303L134.487 22.6171L135.7 27.1449ZM125.431 25.0434L120.904 26.2567L119.69 21.7289L124.218 20.5157L125.431 25.0434Z" fill="white"/>
<path d="M165.863 43.0765C161.884 32.3924 154.246 23.3633 144.356 17.6532C134.466 11.943 122.828 9.84292 111.585 11.7395C101.037 13.5184 91.3039 18.7165 84.0025 26.432C81.0383 25.6966 77.8196 26.9609 76.218 29.7349L71.5302 37.8543C69.9286 40.6284 70.4431 44.048 72.5623 46.2473C69.6562 56.0171 69.8775 66.6375 73.222 76.3388L77.6536 74.811C74.781 66.4786 74.4528 57.3994 76.6735 48.9426L151.102 91.9136C136.996 105.913 114.911 108.907 97.4802 98.844C89.5033 94.2388 83.2431 87.4039 79.3756 79.0786L75.1246 81.0533C78.2357 87.7511 82.7528 93.5697 88.3759 98.2068L40.1018 181.819C39.0098 183.711 38.721 185.921 39.2897 188.042C39.858 190.163 41.2132 191.933 43.1047 193.025C44.9966 194.117 47.2067 194.406 49.3278 193.838C51.4487 193.27 53.2183 191.914 54.3108 190.022L60.3861 179.5L56.3265 177.156L50.2512 187.679C49.785 188.487 49.0262 189.066 48.1149 189.31C47.2036 189.554 46.2566 189.432 45.4493 188.966C43.7702 187.996 43.1927 185.842 44.1622 184.163L92.1564 101.035C93.1246 101.689 94.1168 102.314 95.1369 102.904C96.1554 103.492 97.193 104.039 98.2462 104.55L58.6699 173.096L62.7296 175.44L102.588 106.404C110.632 109.393 119.383 110.255 127.908 108.817C129.442 108.558 130.958 108.227 132.453 107.827C141.236 105.473 149.249 100.719 155.488 94.1265C156.63 94.4106 157.832 94.4062 159.003 94.0923C160.821 93.6053 162.338 92.4437 163.274 90.8218L167.962 82.7022C169.563 79.9283 169.049 76.5086 166.93 74.3093C169.961 64.129 169.597 53.1032 165.863 43.0765ZM142.012 21.7126C159.443 31.7761 167.892 52.3995 162.822 71.6155L88.3906 28.6429C102.497 14.6436 124.582 11.6495 142.012 21.7126ZM163.903 80.3587L159.215 88.4782C158.904 89.0158 158.398 89.4015 157.79 89.5644C157.182 89.7275 156.551 89.6464 156.013 89.3359L76.4483 43.3992C75.3289 42.7531 74.944 41.3169 75.5905 40.1977L80.2782 32.0783C80.6013 31.5188 81.1217 31.1428 81.7016 30.9874C82.2814 30.8321 82.9201 30.8974 83.4797 31.2205L163.045 77.1571C164.164 77.8033 164.549 79.2399 163.903 80.3587Z" fill="#6AE2DB"/>
</svg>
