<svg width="198" height="311" viewBox="0 0 198 311" fill="none" xmlns="http://www.w3.org/2000/svg">
<path fill-rule="evenodd" clip-rule="evenodd" d="M81.073 73.4652C79.7581 73.4595 78.515 73.9793 77.574 74.9212C76.6341 75.8638 76.1156 77.108 76.1147 78.4191L76.0967 281.918C76.0971 284.651 78.3164 286.871 81.0495 286.87L130.407 286.865C131.721 286.869 132.962 286.348 133.903 285.406C134.845 284.464 135.361 283.219 135.362 281.908L135.382 78.4094C135.384 77.0991 134.865 75.8584 133.925 74.9188C132.984 73.9718 131.741 73.4531 130.427 73.4564L81.073 73.4652ZM68.6401 285.238C68.3574 284.182 68.2042 283.064 68.2035 281.914L68.2256 78.4251C68.2245 74.9955 69.5643 71.7748 71.9958 69.3442C74.429 66.9145 77.6505 65.5723 81.071 65.5659L130.429 65.5668C133.85 65.561 137.073 66.9006 139.505 69.3382C141.936 71.7677 143.274 74.9917 143.273 78.4139L143.252 281.905C143.255 285.336 141.913 288.554 139.481 290.985C137.052 293.424 133.826 294.756 130.406 294.763L81.0486 294.763C75.1154 294.763 70.1059 290.716 68.6401 285.238Z" fill="#8762F1"/>
<path fill-rule="evenodd" clip-rule="evenodd" d="M77.248 70.5325C77.0652 69.8497 77.0619 69.1184 77.2743 68.3975L93.2941 13.9794C94.864 8.63852 99.8668 5.04964 105.743 5.04847C111.624 5.05637 116.622 8.6342 118.193 13.9752L134.2 68.3946C134.211 68.4263 134.218 68.4576 134.227 68.4893C134.779 70.5473 133.587 72.6866 131.528 73.2901C129.44 73.9111 127.245 72.7106 126.63 70.6201L110.624 16.202C109.919 13.8038 107.638 12.9411 105.743 12.9471C103.848 12.9458 101.569 13.8025 100.861 16.2053L84.8445 70.625C84.2282 72.7129 82.0348 73.9129 79.9452 73.299C78.5766 72.8917 77.59 71.8112 77.248 70.5325Z" fill="#8762F1"/>
<path fill-rule="evenodd" clip-rule="evenodd" d="M105.745 137.478C101.405 137.476 97.8739 141.009 97.8741 145.35L97.8673 214.986C97.8686 217.079 98.6869 219.046 100.181 220.543C101.675 222.034 103.646 222.858 105.735 222.859C107.823 222.854 109.797 222.034 111.289 220.536C112.783 219.047 113.605 217.072 113.607 214.986L113.613 145.345C113.613 143.25 112.791 141.282 111.296 139.785C109.805 138.296 107.833 137.472 105.745 137.478ZM90.5114 219.069C90.1583 217.75 89.9739 216.378 89.9745 214.981L89.9838 145.347C89.984 141.151 91.6258 137.194 94.609 134.207C97.5948 131.228 101.547 129.58 105.743 129.579C109.94 129.578 113.895 131.223 116.879 134.211C119.861 137.19 121.502 141.142 121.503 145.347L121.497 214.981C121.495 219.178 119.851 223.134 116.869 226.121C113.885 229.101 109.93 230.748 105.734 230.749C101.539 230.751 97.5829 229.105 94.6014 226.125C92.6121 224.132 91.2157 221.705 90.5114 219.069Z" fill="#8762F1"/>
<path fill-rule="evenodd" clip-rule="evenodd" d="M68.3536 102.876C68.266 102.549 68.2176 102.204 68.2165 101.847C68.2183 99.6685 69.9833 97.901 72.1627 97.9038L139.316 97.8979C141.496 97.9015 143.258 99.6661 143.26 101.844C143.259 104.023 141.493 105.791 139.314 105.787L72.1632 105.793C70.3383 105.798 68.8027 104.558 68.3536 102.876Z" fill="#8762F1"/>
<path fill-rule="evenodd" clip-rule="evenodd" d="M68.3545 259.511C68.2674 259.186 68.2181 258.841 68.217 258.484C68.2196 256.306 69.9844 254.538 72.1632 254.541L139.316 254.536C141.493 254.53 143.257 256.295 143.26 258.481C143.261 260.661 141.493 262.427 139.314 262.424L72.1631 262.431C70.3398 262.436 68.8035 261.194 68.3545 259.511Z" fill="#8762F1"/>
<path fill-rule="evenodd" clip-rule="evenodd" d="M97.8888 146.353L97.882 215.99C97.8833 218.083 98.7016 220.049 100.196 221.547C101.689 223.037 103.661 223.861 105.75 223.863C107.838 223.857 109.811 223.037 111.304 221.539C112.798 220.051 113.62 218.075 113.622 215.99L113.628 146.348C113.628 144.252 112.806 142.285 111.311 140.788C109.82 139.298 107.847 138.474 105.76 138.481C101.419 138.479 97.8886 142.012 97.8888 146.353Z" fill="#A07EFF"/>
<path fill-rule="evenodd" clip-rule="evenodd" d="M105.758 130.582C109.955 130.581 113.909 132.227 116.893 135.214C119.875 138.194 121.516 142.146 121.517 146.35L121.511 215.984C121.509 220.18 119.865 224.136 116.883 227.123C113.899 230.104 109.944 231.75 105.748 231.752C101.553 231.753 97.5973 230.107 94.6158 227.128C92.6266 225.135 91.2302 222.707 90.5259 220.071C90.1728 218.753 89.9884 217.38 89.9891 215.984L89.9984 146.35C89.9986 142.154 91.6403 138.198 94.6234 135.21C97.6092 132.231 101.561 130.584 105.758 130.582ZM135.394 106.793L76.127 106.799L76.1139 255.54L135.379 255.536L135.394 106.793Z" fill="#A07EFF"/>
<path fill-rule="evenodd" clip-rule="evenodd" d="M86.3483 66.5642L125.156 66.5648L110.638 17.2044C109.932 14.8062 107.652 13.9435 105.757 13.9495C103.861 13.9482 101.583 14.8049 100.875 17.2077L86.3483 66.5642Z" fill="#A07EFF"/>
<path fill-rule="evenodd" clip-rule="evenodd" d="M76.1215 98.905L135.384 98.8999L135.386 79.4118C135.387 78.1017 134.869 76.861 133.929 75.9215C132.988 74.9745 131.745 74.4559 130.432 74.4592L81.081 74.4674C79.7662 74.4617 78.5232 74.9815 77.5822 75.9233C76.6424 76.8658 76.1239 78.11 76.1231 79.4209L76.1215 98.905Z" fill="#A07EFF"/>
<path fill-rule="evenodd" clip-rule="evenodd" d="M135.386 263.429L76.1249 263.435L76.1232 282.923C76.1236 285.656 78.3427 287.876 81.0756 287.875L130.429 287.869C131.743 287.873 132.984 287.352 133.925 286.411C134.867 285.469 135.383 284.224 135.384 282.913L135.386 263.429Z" fill="#A07EFF"/>
</svg>
