<svg width="197" height="310" viewBox="0 0 197 310" fill="none" xmlns="http://www.w3.org/2000/svg">
<path fill-rule="evenodd" clip-rule="evenodd" d="M80.0877 73.4679C78.7728 73.4622 77.5296 73.982 76.5886 74.9239C75.6487 75.8664 75.1302 77.1107 75.1293 78.4218L75.1113 281.921C75.1118 284.654 77.331 286.874 80.0641 286.873L129.421 286.867C130.736 286.871 131.977 286.351 132.918 285.409C133.86 284.467 134.376 283.222 134.376 281.911L134.397 78.4121C134.398 77.1018 133.88 75.8611 132.94 74.9215C131.999 73.9744 130.756 73.4558 129.442 73.4591L80.0877 73.4679ZM67.6548 285.24C67.372 284.184 67.2188 283.066 67.2181 281.917L67.2402 78.4278C67.2392 74.9982 68.579 71.7775 71.0104 69.3468C73.4436 66.9172 76.6651 65.575 80.0856 65.5686L129.443 65.5695C132.865 65.5637 136.087 66.9033 138.519 69.3409C140.95 71.7703 142.288 74.9944 142.288 78.4166L142.266 281.907C142.27 285.338 140.927 288.556 138.495 290.987C136.067 293.426 132.841 294.759 129.421 294.765L80.0633 294.766C74.13 294.765 69.1206 290.719 67.6548 285.24Z" fill="#02A9F4"/>
<path fill-rule="evenodd" clip-rule="evenodd" d="M76.2627 70.5351C76.0799 69.8524 76.0765 69.1211 76.2889 68.4001L92.3087 13.9821C93.8786 8.6412 98.8815 5.05232 104.758 5.05115C110.638 5.05905 115.637 8.63689 117.208 13.9779L133.215 68.3973C133.225 68.429 133.233 68.4603 133.242 68.492C133.793 70.55 132.602 72.6893 130.542 73.2927C128.455 73.9138 126.259 72.7132 125.644 70.6228L109.639 16.2047C108.933 13.8065 106.653 12.9438 104.758 12.9498C102.862 12.9485 100.584 13.8051 99.8761 16.208L83.8591 70.6277C83.2429 72.7156 81.0495 73.9156 78.9598 73.3016C77.5913 72.8944 76.6046 71.8139 76.2627 70.5351Z" fill="#02A9F4"/>
<path fill-rule="evenodd" clip-rule="evenodd" d="M104.76 137.481C100.419 137.479 96.8885 141.012 96.8887 145.352L96.882 214.989C96.8833 217.082 97.7015 219.049 99.1959 220.546C100.689 222.037 102.661 222.86 104.75 222.862C106.838 222.856 108.811 222.037 110.303 220.539C111.798 219.05 112.619 217.075 112.621 214.989L112.627 145.348C112.627 143.252 111.806 141.285 110.311 139.788C108.819 138.298 106.847 137.475 104.76 137.481ZM89.5261 219.072C89.173 217.753 88.9885 216.38 88.9892 214.984L88.9985 145.35C88.9987 141.154 90.6405 137.197 93.6236 134.21C96.6094 131.231 100.562 129.583 104.758 129.581C108.955 129.581 112.909 131.226 115.893 134.214C118.876 137.193 120.516 141.145 120.518 145.349L120.512 214.984C120.51 219.18 118.866 223.137 115.883 226.124C112.899 229.104 108.945 230.75 104.749 230.752C100.554 230.754 96.5975 229.108 93.616 226.128C91.6267 224.135 90.2304 221.707 89.5261 219.072Z" fill="#02A9F4"/>
<path fill-rule="evenodd" clip-rule="evenodd" d="M67.3682 102.879C67.2807 102.552 67.2322 102.207 67.2312 101.85C67.2329 99.6712 68.998 97.9037 71.1773 97.9065L138.331 97.9006C140.51 97.9042 142.273 99.6688 142.274 101.847C142.274 104.026 140.507 105.793 138.328 105.79L71.1778 105.796C69.3529 105.801 67.8174 104.56 67.3682 102.879Z" fill="#02A9F4"/>
<path fill-rule="evenodd" clip-rule="evenodd" d="M67.3691 259.514C67.2821 259.189 67.2328 258.844 67.2317 258.486C67.2342 256.308 68.999 254.54 71.1779 254.543L138.33 254.539C140.508 254.533 142.271 256.298 142.275 258.484C142.275 260.663 140.508 262.43 138.329 262.427L71.1777 262.434C69.3544 262.438 67.8181 261.197 67.3691 259.514Z" fill="#02A9F4"/>
<path fill-rule="evenodd" clip-rule="evenodd" d="M96.8888 145.353L96.882 214.99C96.8833 217.083 97.7016 219.049 99.1959 220.547C100.689 222.037 102.661 222.861 104.75 222.863C106.838 222.857 108.811 222.037 110.304 220.539C111.798 219.051 112.62 217.075 112.622 214.99L112.628 145.348C112.628 143.252 111.806 141.285 110.311 139.788C108.82 138.298 106.847 137.474 104.76 137.481C100.419 137.479 96.8886 141.012 96.8888 145.353Z" fill="#5ACCFF"/>
<path fill-rule="evenodd" clip-rule="evenodd" d="M104.758 129.582C108.955 129.581 112.909 131.227 115.893 134.214C118.875 137.194 120.516 141.146 120.517 145.35L120.511 214.984C120.509 219.18 118.865 223.136 115.883 226.123C112.899 229.104 108.944 230.75 104.748 230.752C100.553 230.753 96.5973 229.107 93.6158 226.128C91.6266 224.135 90.2302 221.707 89.5259 219.071C89.1728 217.753 88.9884 216.38 88.9891 214.984L88.9984 145.35C88.9986 141.154 90.6403 137.198 93.6234 134.21C96.6092 131.231 100.561 129.584 104.758 129.582ZM134.394 105.793L75.127 105.799L75.1139 254.54L134.379 254.536L134.394 105.793Z" fill="#5ACCFF"/>
<path fill-rule="evenodd" clip-rule="evenodd" d="M85.3483 65.5642L124.156 65.5648L109.638 16.2044C108.932 13.8062 106.652 12.9435 104.757 12.9495C102.861 12.9482 100.583 13.8049 99.8751 16.2077L85.3483 65.5642Z" fill="#5ACCFF"/>
<path fill-rule="evenodd" clip-rule="evenodd" d="M75.1215 97.905L134.384 97.8999L134.386 78.4118C134.387 77.1017 133.869 75.861 132.929 74.9215C131.988 73.9745 130.745 73.4559 129.432 73.4592L80.081 73.4674C78.7662 73.4617 77.5232 73.9815 76.5822 74.9233C75.6424 75.8658 75.1239 77.11 75.1231 78.4209L75.1215 97.905Z" fill="#5ACCFF"/>
<path fill-rule="evenodd" clip-rule="evenodd" d="M134.386 262.429L75.1249 262.435L75.1232 281.923C75.1236 284.656 77.3427 286.876 80.0756 286.875L129.429 286.869C130.743 286.873 131.984 286.352 132.925 285.411C133.867 284.469 134.383 283.224 134.384 281.913L134.386 262.429Z" fill="#5ACCFF"/>
</svg>
