<svg width="196" height="310" viewBox="0 0 196 310" fill="none" xmlns="http://www.w3.org/2000/svg">
<path fill-rule="evenodd" clip-rule="evenodd" d="M80.0728 73.4652C78.7579 73.4595 77.5147 73.9793 76.5737 74.9212C75.6338 75.8638 75.1153 77.108 75.1145 78.4191L75.0965 281.918C75.0969 284.651 77.3161 286.871 80.0492 286.87L129.406 286.865C130.721 286.869 131.962 286.348 132.903 285.406C133.845 284.464 134.361 283.219 134.362 281.908L134.382 78.4094C134.383 77.0991 133.865 75.8584 132.925 74.9188C131.984 73.9718 130.741 73.4531 129.427 73.4564L80.0728 73.4652ZM67.6399 285.238C67.3571 284.182 67.2039 283.064 67.2032 281.914L67.2253 78.4251C67.2243 74.9955 68.5641 71.7748 70.9955 69.3442C73.4288 66.9145 76.6502 65.5723 80.0708 65.5659L129.428 65.5668C132.85 65.561 136.072 66.9006 138.505 69.3382C140.935 71.7677 142.274 74.9917 142.273 78.4139L142.251 281.905C142.255 285.336 140.913 288.554 138.48 290.985C136.052 293.424 132.826 294.756 129.406 294.763L80.0484 294.763C74.1151 294.763 69.1057 290.716 67.6399 285.238Z" fill="#32D736"/>
<path fill-rule="evenodd" clip-rule="evenodd" d="M76.2483 70.5325C76.0655 69.8497 76.0621 69.1184 76.2745 68.3975L92.2943 13.9794C93.8642 8.63852 98.8671 5.04964 104.744 5.04847C110.624 5.05637 115.623 8.6342 117.193 13.9752L133.201 68.3946C133.211 68.4263 133.219 68.4576 133.227 68.4893C133.779 70.5473 132.587 72.6866 130.528 73.2901C128.44 73.9111 126.245 72.7106 125.63 70.6201L109.624 16.202C108.919 13.8038 106.638 12.9411 104.744 12.9471C102.848 12.9458 100.569 13.8025 99.8617 16.2053L83.8447 70.625C83.2285 72.7129 81.0351 73.9129 78.9454 73.299C77.5769 72.8917 76.5902 71.8112 76.2483 70.5325Z" fill="#32D736"/>
<path fill-rule="evenodd" clip-rule="evenodd" d="M104.745 137.478C100.404 137.476 96.8736 141.009 96.8738 145.35L96.8671 214.986C96.8684 217.079 97.6866 219.046 99.181 220.543C100.674 222.034 102.646 222.858 104.735 222.859C106.823 222.854 108.796 222.034 110.289 220.536C111.783 219.047 112.605 217.072 112.606 214.986L112.613 145.345C112.612 143.25 111.791 141.282 110.296 139.785C108.804 138.296 106.833 137.472 104.745 137.478ZM89.5112 219.069C89.1581 217.75 88.9736 216.378 88.9743 214.981L88.9836 145.347C88.9838 141.151 90.6256 137.194 93.6087 134.207C96.5945 131.228 100.547 129.58 104.743 129.579C108.94 129.578 112.894 131.223 115.878 134.211C118.861 137.19 120.501 141.142 120.503 145.347L120.497 214.981C120.495 219.178 118.851 223.134 115.868 226.121C112.884 229.101 108.93 230.748 104.734 230.749C100.539 230.751 96.5826 229.105 93.6011 226.125C91.6119 224.132 90.2155 221.705 89.5112 219.069Z" fill="#32D736"/>
<path fill-rule="evenodd" clip-rule="evenodd" d="M67.3536 102.876C67.266 102.549 67.2176 102.204 67.2165 101.847C67.2183 99.6685 68.9833 97.901 71.1627 97.9038L138.316 97.8979C140.496 97.9015 142.258 99.6661 142.26 101.844C142.259 104.023 140.493 105.791 138.314 105.787L71.1632 105.793C69.3383 105.798 67.8027 104.558 67.3536 102.876Z" fill="#32D736"/>
<path fill-rule="evenodd" clip-rule="evenodd" d="M67.3545 259.511C67.2674 259.186 67.2181 258.841 67.217 258.484C67.2196 256.306 68.9844 254.538 71.1632 254.541L138.316 254.536C140.493 254.53 142.257 256.295 142.26 258.481C142.261 260.661 140.493 262.427 138.314 262.424L71.1631 262.431C69.3398 262.436 67.8035 261.194 67.3545 259.511Z" fill="#32D736"/>
<path fill-rule="evenodd" clip-rule="evenodd" d="M96.9337 144.94L96.9269 214.578C96.9282 216.671 97.7465 218.637 99.2409 220.135C100.734 221.625 102.706 222.449 104.795 222.45C106.883 222.445 108.856 221.625 110.349 220.127C111.843 218.639 112.665 216.663 112.667 214.577L112.673 144.936C112.672 142.84 111.851 140.873 110.356 139.376C108.865 137.886 106.891 137.062 104.805 137.069C100.464 137.067 96.9335 140.6 96.9337 144.94Z" fill="#72FF75"/>
<path fill-rule="evenodd" clip-rule="evenodd" d="M104.803 129.17C109 129.169 112.954 130.815 115.938 133.802C118.92 136.781 120.561 140.733 120.562 144.938L120.556 214.572C120.554 218.768 118.91 222.724 115.928 225.711C112.944 228.691 108.989 230.338 104.793 230.34C100.598 230.341 96.6422 228.695 93.6607 225.715C91.6715 223.723 90.2752 221.295 89.5709 218.659C89.2178 217.341 89.0333 215.968 89.034 214.572L89.0433 144.938C89.0435 140.742 90.6852 136.785 93.6683 133.798C96.6541 130.819 100.606 129.172 104.803 129.17ZM134.439 105.381L75.1719 105.386L75.1589 254.128L134.424 254.124L134.439 105.381Z" fill="#72FF75"/>
<path fill-rule="evenodd" clip-rule="evenodd" d="M85.3932 65.1521L124.201 65.1527L109.683 15.7923C108.977 13.3941 106.697 12.5314 104.802 12.5373C102.906 12.5361 100.628 13.3928 99.92 15.7956L85.3932 65.1521Z" fill="#72FF75"/>
<path fill-rule="evenodd" clip-rule="evenodd" d="M75.1659 97.4929L134.428 97.4877L134.43 77.9997C134.432 76.6895 133.913 75.4489 132.973 74.5094C132.032 73.5624 130.79 73.0438 129.476 73.0471L80.1255 73.0553C78.8107 73.0496 77.5676 73.5694 76.6267 74.5112C75.6868 75.4537 75.1684 76.6979 75.1675 78.0088L75.1659 97.4929Z" fill="#72FF75"/>
<path fill-rule="evenodd" clip-rule="evenodd" d="M134.43 262.017L75.1696 262.023L75.1679 281.511C75.1683 284.243 77.3874 286.464 80.1203 286.463L129.474 286.457C130.788 286.461 132.029 285.94 132.97 284.998C133.912 284.057 134.428 282.812 134.428 281.501L134.43 262.017Z" fill="#72FF75"/>
</svg>
