<svg width="197" height="310" viewBox="0 0 197 310" fill="none" xmlns="http://www.w3.org/2000/svg">
<path fill-rule="evenodd" clip-rule="evenodd" d="M80.0728 73.4652C78.7579 73.4595 77.5147 73.9793 76.5737 74.9212C75.6338 75.8638 75.1153 77.108 75.1145 78.4191L75.0965 281.918C75.0969 284.651 77.3161 286.871 80.0492 286.87L129.406 286.865C130.721 286.869 131.962 286.348 132.903 285.406C133.845 284.464 134.361 283.219 134.362 281.908L134.382 78.4094C134.383 77.0991 133.865 75.8584 132.925 74.9188C131.984 73.9718 130.741 73.4531 129.427 73.4564L80.0728 73.4652ZM67.6399 285.238C67.3571 284.182 67.2039 283.064 67.2032 281.914L67.2253 78.4251C67.2243 74.9955 68.5641 71.7748 70.9955 69.3442C73.4288 66.9145 76.6502 65.5723 80.0708 65.5659L129.428 65.5668C132.85 65.561 136.072 66.9006 138.505 69.3382C140.935 71.7677 142.274 74.9917 142.273 78.4139L142.251 281.905C142.255 285.336 140.913 288.554 138.48 290.985C136.052 293.424 132.826 294.756 129.406 294.763L80.0484 294.763C74.1151 294.763 69.1057 290.716 67.6399 285.238Z" fill="#FF9801"/>
<path fill-rule="evenodd" clip-rule="evenodd" d="M76.2483 70.5325C76.0655 69.8497 76.0621 69.1184 76.2745 68.3975L92.2943 13.9794C93.8642 8.63852 98.8671 5.04964 104.744 5.04847C110.624 5.05637 115.623 8.6342 117.193 13.9752L133.201 68.3946C133.211 68.4263 133.219 68.4576 133.227 68.4893C133.779 70.5473 132.587 72.6866 130.528 73.2901C128.44 73.9111 126.245 72.7106 125.63 70.6201L109.624 16.202C108.919 13.8038 106.638 12.9411 104.744 12.9471C102.848 12.9458 100.569 13.8025 99.8617 16.2053L83.8447 70.625C83.2285 72.7129 81.0351 73.9129 78.9454 73.299C77.5769 72.8917 76.5902 71.8112 76.2483 70.5325Z" fill="#FF9801"/>
<path fill-rule="evenodd" clip-rule="evenodd" d="M104.745 137.478C100.404 137.476 96.8736 141.009 96.8738 145.35L96.8671 214.986C96.8684 217.079 97.6866 219.046 99.181 220.543C100.674 222.034 102.646 222.858 104.735 222.859C106.823 222.854 108.796 222.034 110.289 220.536C111.783 219.047 112.605 217.072 112.606 214.986L112.613 145.345C112.612 143.25 111.791 141.282 110.296 139.785C108.804 138.296 106.833 137.472 104.745 137.478ZM89.5112 219.069C89.1581 217.75 88.9736 216.378 88.9743 214.981L88.9836 145.347C88.9838 141.151 90.6256 137.194 93.6087 134.207C96.5945 131.228 100.547 129.58 104.743 129.579C108.94 129.578 112.894 131.223 115.878 134.211C118.861 137.19 120.501 141.142 120.503 145.347L120.497 214.981C120.495 219.178 118.851 223.134 115.868 226.121C112.884 229.101 108.93 230.748 104.734 230.749C100.539 230.751 96.5826 229.105 93.6011 226.125C91.6119 224.132 90.2155 221.705 89.5112 219.069Z" fill="#FF9801"/>
<path fill-rule="evenodd" clip-rule="evenodd" d="M67.3536 102.876C67.266 102.549 67.2176 102.204 67.2165 101.847C67.2183 99.6685 68.9833 97.901 71.1627 97.9038L138.316 97.8979C140.496 97.9015 142.258 99.6661 142.26 101.844C142.259 104.023 140.493 105.791 138.314 105.787L71.1632 105.793C69.3383 105.798 67.8027 104.558 67.3536 102.876Z" fill="#FF9801"/>
<path fill-rule="evenodd" clip-rule="evenodd" d="M67.3545 259.511C67.2674 259.186 67.2181 258.841 67.217 258.484C67.2196 256.306 68.9844 254.538 71.1632 254.541L138.316 254.536C140.493 254.53 142.257 256.295 142.26 258.481C142.261 260.661 140.493 262.427 138.314 262.424L71.1631 262.431C69.3398 262.436 67.8035 261.194 67.3545 259.511Z" fill="#FF9801"/>
<path fill-rule="evenodd" clip-rule="evenodd" d="M96.889 145.353L96.8823 214.99C96.8836 217.083 97.7018 219.049 99.1962 220.547C100.69 222.037 102.661 222.861 104.75 222.863C106.839 222.857 108.812 222.037 110.304 220.539C111.799 219.051 112.62 217.075 112.622 214.99L112.628 145.348C112.628 143.253 111.806 141.285 110.312 139.788C108.82 138.298 106.847 137.474 104.761 137.481C100.42 137.479 96.8888 141.012 96.889 145.353Z" fill="#FFAE38"/>
<path fill-rule="evenodd" clip-rule="evenodd" d="M104.758 129.582C108.955 129.581 112.909 131.227 115.893 134.214C118.875 137.194 120.516 141.146 120.517 145.35L120.512 214.984C120.51 219.18 118.865 223.136 115.883 226.123C112.899 229.104 108.945 230.75 104.749 230.752C100.554 230.753 96.5975 229.107 93.616 226.128C91.6268 224.135 90.2305 221.707 89.5262 219.071C89.1731 217.753 88.9886 216.38 88.9893 214.984L88.9986 145.35C88.9988 141.154 90.6406 137.198 93.6237 134.21C96.6094 131.231 100.562 129.584 104.758 129.582ZM134.394 105.793L75.1272 105.799L75.1142 254.54L134.379 254.536L134.394 105.793Z" fill="#FFAE38"/>
<path fill-rule="evenodd" clip-rule="evenodd" d="M85.3486 65.5642L124.156 65.5648L109.638 16.2044C108.933 13.8062 106.652 12.9435 104.757 12.9495C102.862 12.9482 100.583 13.8049 99.8754 16.2077L85.3486 65.5642Z" fill="#FFAE38"/>
<path fill-rule="evenodd" clip-rule="evenodd" d="M75.1212 97.905L134.384 97.8999L134.386 78.4118C134.387 77.1017 133.869 75.861 132.929 74.9215C131.988 73.9745 130.745 73.4559 129.431 73.4592L80.0808 73.4674C78.766 73.4617 77.5229 73.9815 76.582 74.9233C75.6422 75.8658 75.1237 77.11 75.1228 78.4209L75.1212 97.905Z" fill="#FFAE38"/>
<path fill-rule="evenodd" clip-rule="evenodd" d="M134.386 262.429L75.1249 262.435L75.1232 281.923C75.1236 284.656 77.3427 286.876 80.0756 286.875L129.429 286.869C130.743 286.873 131.984 286.352 132.925 285.411C133.867 284.469 134.383 283.224 134.384 281.913L134.386 262.429Z" fill="#FFAE38"/>
</svg>
