<svg width="52" height="52" viewBox="0 0 52 52" fill="none" xmlns="http://www.w3.org/2000/svg">
<rect x="2" y="2" width="48" height="48" rx="15" stroke="#62F163" stroke-width="4" stroke-dasharray="8 4"/>
<path d="M18.4104 31.8465C18.5714 31.7121 18.7782 31.6454 18.9874 31.6603C19.1965 31.6752 19.3918 31.7705 19.5321 31.9264C20.3956 32.8766 21.4602 33.6219 22.6482 34.1082C22.843 34.1862 23 34.3369 23.086 34.5285C23.1721 34.72 23.1804 34.9375 23.1094 35.1351L22.56 36.6464C22.5227 36.7481 22.4655 36.8415 22.3918 36.9208C22.318 37.0002 22.2291 37.064 22.1304 37.1086C22.0316 37.1531 21.9249 37.1775 21.8166 37.1803C21.7083 37.183 21.6006 37.1641 21.4997 37.1247C19.8168 36.4426 18.3108 35.3868 17.0956 34.037C17.0243 33.9557 16.97 33.861 16.9357 33.7584C16.9014 33.6558 16.8879 33.5475 16.896 33.4396C16.904 33.3318 16.9335 33.2266 16.9826 33.1303C17.0318 33.034 17.0996 32.9484 17.1822 32.8786L18.4104 31.8465Z" fill="#ACF1AC"/>
<path d="M23.9403 35.3611C23.9772 35.1543 24.0929 34.97 24.263 34.8469C24.4331 34.7239 24.6444 34.6718 24.8522 34.7016C26.1252 34.8754 27.421 34.7623 28.6447 34.3705C28.8441 34.3055 29.0609 34.3203 29.2496 34.4118C29.4382 34.5034 29.5841 34.6645 29.6565 34.8614L30.2054 36.3659C30.2422 36.4677 30.2583 36.5759 30.2529 36.684C30.2474 36.7922 30.2204 36.8981 30.1736 36.9957C30.1267 37.0933 30.0608 37.1805 29.9798 37.2523C29.8988 37.3241 29.8043 37.3791 29.7018 37.4139C27.9744 37.9747 26.1424 38.136 24.3436 37.8858C24.2366 37.8696 24.1338 37.8322 24.0414 37.7757C23.9489 37.7193 23.8687 37.6449 23.8053 37.5571C23.7419 37.4692 23.6967 37.3696 23.6723 37.264C23.6479 37.1585 23.6448 37.0491 23.6631 36.9423L23.9403 35.3611Z" fill="#95EB95"/>
<path d="M30.7119 33.401C32.6731 32.1553 34.0598 30.1816 34.5674 27.9136C35.075 25.6456 34.662 23.2687 33.4191 21.3052C32.1761 19.3417 30.205 17.9521 27.9387 17.4417C25.6723 16.9313 23.2962 17.3419 21.3323 18.5833L23.9621 19.4765C24.1332 19.5346 24.2799 19.6482 24.3791 19.7993C24.4782 19.9504 24.5239 20.1303 24.5091 20.3105C24.4943 20.4906 24.4197 20.6606 24.2972 20.7934C24.1747 20.9262 24.0113 21.0143 23.833 21.0435L16.7402 22.2054C16.6267 22.2241 16.5106 22.2183 16.3995 22.1886C16.2884 22.1588 16.1849 22.1057 16.0959 22.0328C16.0069 21.9599 15.9345 21.8688 15.8834 21.7657C15.8323 21.6626 15.8038 21.5498 15.7997 21.4348L15.571 14.9591C15.5647 14.7777 15.6194 14.5995 15.7264 14.4529C15.8334 14.3064 15.9864 14.2 16.161 14.1508C16.3357 14.1017 16.5217 14.1126 16.6894 14.1818C16.8571 14.251 16.9967 14.3746 17.0858 14.5327L18.3527 16.7647C19.6164 15.7154 21.0821 14.9371 22.6589 14.478C24.2357 14.0188 25.8899 13.8886 27.5191 14.0954C29.1482 14.3022 30.7175 14.8416 32.1297 15.6802C33.5419 16.5188 34.7669 17.6387 35.7287 18.9704C36.6905 20.3022 37.3687 21.8174 37.7211 23.4221C38.0735 25.0269 38.0927 26.6869 37.7775 28.2994C37.4623 29.9119 36.8194 31.4424 35.8886 32.7961C34.9579 34.1497 33.7591 35.2976 32.3667 36.1687C32.2743 36.2251 32.1715 36.2625 32.0644 36.2787C31.9573 36.2949 31.8481 36.2895 31.7431 36.2628C31.6382 36.2362 31.5396 36.1889 31.4531 36.1236C31.3667 36.0583 31.2942 35.9764 31.2398 35.8827L30.4375 34.4933C30.3332 34.3111 30.3036 34.0955 30.3547 33.8919C30.4059 33.6882 30.5339 33.5123 30.7119 33.401Z" fill="#62F163"/>
</svg>
