<svg width="300" height="300" viewBox="0 0 300 300" fill="none" xmlns="http://www.w3.org/2000/svg">
<path d="M222 78C222 126 174 174 150 174C126 174 78 126 78 78C78 38.2441 110.244 6 150 6C189.756 6 222 38.2441 222 78Z" fill="#EAFFEA"/>
<path d="M156 30C156 33.3117 153.312 36 150 36C126.84 36 108 54.8402 108 78C108 81.3117 105.312 84 102 84C98.6883 84 96 81.3117 96 78C96 48.2279 120.228 24 150 24C153.312 24 156 26.6883 156 30ZM150 168C129.252 168 84 122.82 84 78C84 41.6162 113.616 12 150 12C186.384 12 216 41.6162 216 78C216 122.82 170.748 168 150 168ZM228 78C228 34.9922 193.008 0 150 0C106.992 0 72 34.9922 72 78C72 121.98 109.812 166.548 138.072 177.444L133.752 181.752C132.048 183.468 131.532 186.06 132.456 188.292C133.38 190.536 135.576 192 138 192H146.004C163.932 234.744 154.476 244.596 141.384 257.952C133.368 266.148 124.272 275.436 120.168 292.608C119.388 295.824 121.379 299.064 124.608 299.832C125.076 299.952 125.544 300 126 300C128.724 300 131.184 298.152 131.832 295.392C135.18 281.46 142.692 273.768 149.964 266.34C166.344 249.612 175.968 234.996 158.988 192H161.999C164.423 192 166.62 190.536 167.544 188.292C168.468 186.06 167.951 183.468 166.247 181.752L161.927 177.444C190.188 166.548 228 121.98 228 78Z" fill="#F0E25E"/>
<path opacity="0.24" d="M226.836 65.0278C226.356 62.1356 223.847 60.0239 220.92 60.0239C217.655 60.444 215.46 62.172 214.992 65.0882C208.284 107.472 167.292 144 150 144C132.696 144 91.7039 107.472 85.0078 65.0882C84.5397 62.1843 82.0559 60.0362 79.0916 60.0239H79.0799C76.1396 60.0239 73.6318 62.1356 73.152 65.0278C72.3721 69.6837 72 73.92 72 77.9999C72 128.592 122.04 180 150 180C177.96 180 228 128.592 228 77.9999C228 73.92 227.616 69.6837 226.836 65.0278Z" fill="#F0E25E"/>
</svg>
